<svg width="144" height="160" viewBox="0 0 144 160" fill="none" xmlns="http://www.w3.org/2000/svg">
<path d="M85.4209 159C37.8002 159 -14.0114 85.7521 5.67553 49.3506C11.1326 39.2604 23.3367 24.0751 36.4878 24.351C47.9167 24.5907 60.0309 35.2615 66.8986 43.382C73.6114 51.3193 78.87 62.2223 77.7713 72.7375C77.2727 77.5086 74.7503 82.0861 69.7993 79.3589C56.67 72.1267 59.2729 49.7697 70.5755 42.3568C87.41 31.3157 111.356 31.4398 125.988 17.409C127.665 15.8009 137.799 8.38999 134.603 5.05678C131.305 1.61786 123.567 4.75886 119.476 4.21725C113.223 3.38932 132.181 3.88456 138.314 2.40754C143.152 1.24232 143.015 0.189907 140.274 5.75596C137.463 11.4652 134.397 20.9759 137.275 27.0454" stroke="#03979C" stroke-width="2" stroke-linecap="round"/>
</svg>
