<svg width="61" height="173" viewBox="0 0 61 173" fill="none" xmlns="http://www.w3.org/2000/svg">
<path d="M1.36368 1.45967C28.6121 -3.64474 39.7478 43.5756 30.8658 55.6039C26.5489 61.45 23.9767 66.5522 16.2515 67.5469C0.54398 69.5694 2.75746 44.1509 16.9203 41.7695C45.2919 36.999 65.7774 61.8453 56.8547 87.9009C52.7276 99.9524 42.7763 109.498 30.2611 112.485C24.3813 113.888 15.465 113.064 15.5961 104.776C15.8879 86.3316 40.5978 81.7339 52.0945 93.985C70.6032 113.708 53.348 144.091 31.8973 152.446C31.7713 152.495 15.6124 158.035 16.5216 155.238C18.3178 149.713 33.6423 139.63 29.9225 144.093C26.2377 148.514 20.6557 149.117 16.112 151.607C14.0001 152.765 27.379 168.572 29.6022 171.733" stroke="#03979C" stroke-width="2" stroke-linecap="round"/>
</svg>
