<svg width="254" height="231" viewBox="0 0 254 231" fill="none" xmlns="http://www.w3.org/2000/svg">
<g clip-path="url(#clip0_159_4)">
<path d="M172.685 3.00016C190.183 38.9278 204.462 77.9451 194.22 118.042C191.381 129.156 183.237 146.854 170.414 149.785C159.27 152.332 144.924 144.928 136.288 138.722C127.846 132.656 120.093 123.359 118.601 112.893C117.925 108.144 119.258 103.09 124.724 104.531C139.218 108.353 142.131 130.671 132.97 140.611C119.327 155.415 96.0697 161.119 85.2896 178.287C84.0541 180.255 76.0273 189.908 79.9383 192.364C83.9733 194.897 90.7149 189.968 94.8145 189.499C101.082 188.781 82.5723 192.912 76.983 195.836C72.5737 198.143 72.962 199.13 74.267 193.065C75.6055 186.843 76.2654 176.873 71.9984 171.685" stroke="#03979C" stroke-width="2" stroke-linecap="round"/>
</g>
<defs>
<clipPath id="clip0_159_4">
<rect width="254" height="231" fill="white"/>
</clipPath>
</defs>
</svg>
