<svg width="121" height="103" viewBox="0 0 121 103" fill="none" xmlns="http://www.w3.org/2000/svg">
<path d="M1.24422 1.61164C12.7098 3.18544 31.974 6.48821 34.756 21.1794C36.1081 28.3197 38.1009 33.6749 33.5781 40.0162C24.382 52.9099 7.24693 34.0052 15.1296 22.0002C30.9206 -2.04872 63.0686 -0.178748 76.1095 24.0792C82.1412 35.2992 82.3758 49.0868 76.0569 60.2949C73.0882 65.5605 66.4223 71.5391 60.4335 65.8081C47.1062 53.0542 60.5344 31.8079 77.3347 31.7063C104.382 31.5428 114.931 64.8531 106.474 86.2639C106.424 86.3896 99.5007 102.006 98.0679 99.4376C95.2372 94.3639 98.262 76.2709 99.0059 82.033C99.7429 87.7411 96.3897 92.2442 95.1267 97.2694C94.5397 99.605 115.228 100.541 119.057 101.06" stroke="#03979C" stroke-width="2" stroke-linecap="round"/>
</svg>
