<svg width="449" height="397" viewBox="0 0 449 397" fill="none" xmlns="http://www.w3.org/2000/svg">
<path fill-rule="evenodd" clip-rule="evenodd" d="M267.807 4.20442C297.68 11.2168 308.773 48.709 334.769 64.9973C367.273 85.363 417.091 78.9078 438.15 110.935C458.633 142.085 445.032 184.361 437.203 220.777C429.491 256.647 415.461 290.424 393.275 319.662C370.104 350.2 343.655 381.74 306.843 392.58C270.41 403.308 230.651 392.893 195.779 377.817C164.612 364.343 148.549 330.943 120.395 311.975C87.1598 289.583 36.5334 291.008 15.949 256.659C-4.4364 222.642 -4.77247 172.784 17.2212 139.81C39.9786 105.691 93.426 112.662 127.375 89.6045C150.057 74.1984 157.209 43.0653 180.639 28.8168C202.621 -0.121167 237.893 -2.81744 267.807 4.20442Z" fill="#03979C"/>
</svg>
