<svg width="57" height="57" viewBox="0 0 57 57" fill="none" xmlns="http://www.w3.org/2000/svg">
<path d="M33.8271 7.19618C34.4381 7.34926 34.9633 7.73877 35.2871 8.27904C35.6109 8.8193 35.7068 9.46607 35.5538 10.0771L26.0538 48.0771C25.8971 48.6841 25.5067 49.2046 24.9678 49.525C24.4289 49.8453 23.7851 49.9396 23.177 49.7873C22.5688 49.6349 22.0456 49.2483 21.7214 48.7117C21.3971 48.1751 21.2982 47.532 21.4463 46.9228L30.9463 8.92281C31.0993 8.31182 31.4888 7.78667 32.0291 7.46287C32.5694 7.13907 33.2161 7.04314 33.8271 7.19618Z" fill="#F4F4F4"/>
<path d="M3.07089 30.179C2.62564 29.7336 2.37552 29.1297 2.37552 28.4999C2.37552 27.8701 2.62564 27.2661 3.07089 26.8208L12.5709 17.3208C12.79 17.0939 13.052 16.913 13.3418 16.7885C13.6316 16.6641 13.9432 16.5985 14.2586 16.5958C14.5739 16.5931 14.8866 16.6531 15.1785 16.7726C15.4704 16.892 15.7356 17.0683 15.9586 17.2913C16.1816 17.5143 16.3579 17.7795 16.4773 18.0714C16.5968 18.3633 16.6568 18.676 16.6541 18.9913C16.6514 19.3067 16.5858 19.6183 16.4614 19.9081C16.3369 20.1979 16.156 20.4599 15.9291 20.679L8.10826 28.4999L15.9291 36.3208C16.156 36.5398 16.3369 36.8019 16.4614 37.0917C16.5858 37.3814 16.6514 37.6931 16.6541 38.0084C16.6568 38.3238 16.5968 38.6365 16.4773 38.9284C16.3579 39.2203 16.1816 39.4855 15.9586 39.7085C15.7356 39.9314 15.4704 40.1078 15.1785 40.2272C14.8866 40.3466 14.5739 40.4067 14.2586 40.404C13.9432 40.4012 13.6316 40.3357 13.3418 40.2113C13.052 40.0868 12.79 39.9059 12.5709 39.679L3.07089 30.179ZM44.4291 17.3208C44.2101 17.0939 43.948 16.913 43.6582 16.7885C43.3685 16.6641 43.0568 16.5985 42.7415 16.5958C42.4261 16.5931 42.1134 16.6531 41.8215 16.7726C41.5296 16.892 41.2644 17.0683 41.0415 17.2913C40.8185 17.5143 40.6421 17.7795 40.5227 18.0714C40.4033 18.3633 40.3432 18.676 40.3459 18.9913C40.3487 19.3067 40.4142 19.6183 40.5386 19.9081C40.6631 20.1979 40.844 20.4599 41.0709 20.679L48.8918 28.4999L41.0709 36.3208C40.844 36.5398 40.6631 36.8019 40.5386 37.0917C40.4142 37.3814 40.3487 37.6931 40.3459 38.0084C40.3432 38.3238 40.4033 38.6365 40.5227 38.9284C40.6421 39.2203 40.8185 39.4855 41.0415 39.7085C41.2644 39.9314 41.5296 40.1078 41.8215 40.2272C42.1134 40.3466 42.4261 40.4067 42.7415 40.404C43.0568 40.4012 43.3685 40.3357 43.6582 40.2113C43.948 40.0868 44.2101 39.9059 44.4291 39.679L53.9291 30.179C54.3744 29.7336 54.6245 29.1297 54.6245 28.4999C54.6245 27.8701 54.3744 27.2661 53.9291 26.8208L44.4291 17.3208Z" fill="#F4F4F4"/>
</svg>
