<svg width="68" height="67" viewBox="0 0 68 67" fill="none" xmlns="http://www.w3.org/2000/svg">
<g clip-path="url(#clip0_1127_1197)">
<g clip-path="url(#clip1_1127_1197)">
<path d="M11.166 24.8313C15.7914 24.8313 19.541 21.0817 19.541 16.4563C19.541 11.8309 15.7914 8.0813 11.166 8.0813C6.54063 8.0813 2.79102 11.8309 2.79102 16.4563C2.79102 21.0817 6.54063 24.8313 11.166 24.8313Z" fill="#03979C"/>
<path d="M20.3513 30.6101C17.5414 32.3635 15.224 34.8031 13.6173 37.6992C12.0105 40.5953 11.1671 43.8527 11.1667 47.1647L5.58333 47.1647C4.1039 47.1603 2.68632 46.5706 1.6402 45.5245C0.59408 44.4784 0.00441844 43.0608 -2.05238e-09 41.5814L-1.23143e-09 35.998C0.00662767 33.7789 0.89112 31.6525 2.4603 30.0833C4.02949 28.5142 6.15585 27.6297 8.375 27.623L13.9583 27.623C15.1771 27.6258 16.3806 27.8945 17.4847 28.4104C18.5889 28.9264 19.5672 29.6771 20.3513 30.6101Z" fill="#03979C"/>
<path d="M55.834 24.8313C60.4594 24.8313 64.209 21.0817 64.209 16.4563C64.209 11.8309 60.4594 8.0813 55.834 8.0813C51.2086 8.0813 47.459 11.8309 47.459 16.4563C47.459 21.0817 51.2086 24.8313 55.834 24.8313Z" fill="#03979C"/>
<path d="M66.9997 35.998L66.9997 41.5814C66.9953 43.0608 66.4056 44.4784 65.3595 45.5245C64.3134 46.5706 62.8958 47.1603 61.4164 47.1647L55.833 47.1647C55.8326 43.8527 54.9892 40.5953 53.3824 37.6992C51.7756 34.8031 49.4583 32.3635 46.6484 30.6101C47.4325 29.6771 48.4108 28.9264 49.5149 28.4104C50.6191 27.8945 51.8226 27.6258 53.0414 27.623L58.6247 27.623C60.8438 27.6297 62.9702 28.5142 64.5394 30.0833C66.1086 31.6525 66.9931 33.7789 66.9997 35.998Z" fill="#03979C"/>
<path d="M33.5007 30.4146C39.6678 30.4146 44.6673 25.4151 44.6673 19.248C44.6673 13.0808 39.6678 8.0813 33.5007 8.0813C27.3335 8.0813 22.334 13.0808 22.334 19.248C22.334 25.4151 27.3335 30.4146 33.5007 30.4146Z" fill="#03979C"/>
<path d="M50.25 47.1646L50.25 49.9563C50.2434 52.1754 49.3589 54.3018 47.7897 55.871C46.2205 57.4402 44.0942 58.3247 41.875 58.3313L25.125 58.3313C22.9059 58.3247 20.7795 57.4402 19.2103 55.871C17.6411 54.3018 16.7566 52.1754 16.75 49.9563L16.75 47.1646C16.75 43.4627 18.2206 39.9123 20.8383 37.2946C23.456 34.6769 27.0064 33.2063 30.7083 33.2063L36.2917 33.2063C39.9936 33.2063 43.544 34.6769 46.1617 37.2946C48.7794 39.9123 50.25 43.4627 50.25 47.1646Z" fill="#03979C"/>
</g>
</g>
<defs>
<clipPath id="clip0_1127_1197">
<rect width="66.3941" height="66.3941" fill="white" transform="translate(0.714844 0.224854) rotate(0.306278)"/>
</clipPath>
<clipPath id="clip1_1127_1197">
<rect width="67" height="67" fill="white" transform="translate(0 -0.293701)"/>
</clipPath>
</defs>
</svg>
