<svg width="41" height="41" viewBox="0 0 41 41" fill="none" xmlns="http://www.w3.org/2000/svg">
<path fill-rule="evenodd" clip-rule="evenodd" d="M29.8965 20.271C30.123 19.8787 30.4962 19.5924 30.9338 19.4751C31.3714 19.3579 31.8377 19.4193 32.2301 19.6458L35.1889 21.3541C35.5813 21.5807 35.8676 21.9538 35.9848 22.3914C36.1021 22.8291 36.0407 23.2953 35.8142 23.6877L29.1824 35.1745C29.0504 35.4044 28.866 35.5999 28.6443 35.7451L25.4565 37.8498C25.1918 38.0245 24.8837 38.122 24.5667 38.1315C24.2497 38.141 23.9364 38.062 23.6617 37.9035C23.387 37.745 23.1619 37.5131 23.0115 37.2339C22.8612 36.9547 22.7915 36.6391 22.8103 36.3225L23.0392 32.5095C23.0544 32.2448 23.1316 31.9873 23.2647 31.7579L29.8965 20.271ZM19.5235 37.5833C19.4115 37.1033 19.3695 36.6096 19.3988 36.1175L19.6277 32.3045C19.6755 31.5102 19.9079 30.738 20.3059 30.0495L26.9377 18.5627C27.6173 17.3856 28.7367 16.5267 30.0496 16.175C31.3624 15.8232 32.7613 16.0074 33.9384 16.687L34.1673 16.8185V8.54163C34.1673 7.18239 33.6274 5.87883 32.6662 4.9177C31.7051 3.95658 30.4016 3.41663 29.0423 3.41663H11.959C10.5992 3.41663 9.29569 3.95646 8.33561 4.91825C7.85937 5.39382 7.48161 5.95864 7.22394 6.58039C6.96627 7.20214 6.83376 7.8686 6.83398 8.54163V32.4583C6.83398 33.8181 7.37382 35.1216 8.33561 36.0817C8.81118 36.5579 9.376 36.9357 9.99775 37.1933C10.6195 37.451 11.286 37.5835 11.959 37.5833H19.5235ZM13.6673 27.3333H17.3829C17.836 27.3333 18.2705 27.1533 18.5909 26.8329C18.9113 26.5126 19.0913 26.078 19.0913 25.625C19.0913 25.1719 18.9113 24.7374 18.5909 24.417C18.2705 24.0966 17.836 23.9166 17.3829 23.9166H13.6673C13.2142 23.9166 12.7797 24.0966 12.4593 24.417C12.139 24.7374 11.959 25.1719 11.959 25.625C11.959 26.078 12.139 26.5126 12.4593 26.8329C12.7797 27.1533 13.2142 27.3333 13.6673 27.3333ZM13.6673 20.5H21.0986C21.5516 20.5 21.9862 20.32 22.3065 19.9996C22.6269 19.6792 22.8069 19.2447 22.8069 18.7916C22.8069 18.3385 22.6269 17.904 22.3065 17.5837C21.9862 17.2633 21.5516 17.0833 21.0986 17.0833H13.6673C13.2142 17.0833 12.7797 17.2633 12.4593 17.5837C12.139 17.904 11.959 18.3385 11.959 18.7916C11.959 19.2447 12.139 19.6792 12.4593 19.9996C12.7797 20.32 13.2142 20.5 13.6673 20.5ZM13.6673 13.6666H23.9173C24.3704 13.6666 24.8049 13.4866 25.1253 13.1663C25.4457 12.8459 25.6257 12.4114 25.6257 11.9583C25.6257 11.5052 25.4457 11.0707 25.1253 10.7503C24.8049 10.4299 24.3704 10.25 23.9173 10.25H13.6673C13.2142 10.25 12.7797 10.4299 12.4593 10.7503C12.139 11.0707 11.959 11.5052 11.959 11.9583C11.959 12.4114 12.139 12.8459 12.4593 13.1663C12.7797 13.4866 13.2142 13.6666 13.6673 13.6666Z" fill="#03979C"/>
</svg>
