<svg width="180" height="170" viewBox="0 0 216 170" fill="none" xmlns="http://www.w3.org/2000/svg">
<circle cx="3.85443" cy="3.85443" r="3.85443" fill="#03979C" fill-opacity="0.2"/>
<circle cx="3.85443" cy="26.9809" r="3.85443" fill="#03979C" fill-opacity="0.2"/>
<circle cx="3.85443" cy="50.1074" r="3.85443" fill="#03979C" fill-opacity="0.2"/>
<circle cx="3.85443" cy="73.2343" r="3.85443" fill="#03979C" fill-opacity="0.2"/>
<circle cx="3.85443" cy="96.3608" r="3.85443" fill="#03979C" fill-opacity="0.2"/>
<circle cx="3.85443" cy="119.487" r="3.85443" fill="#03979C" fill-opacity="0.2"/>
<circle cx="3.85443" cy="142.614" r="3.85443" fill="#03979C" fill-opacity="0.2"/>
<circle cx="3.85443" cy="165.741" r="3.85443" fill="#03979C" fill-opacity="0.2"/>
<circle cx="26.981" cy="3.85443" r="3.85443" fill="#03979C" fill-opacity="0.2"/>
<circle cx="26.981" cy="26.9809" r="3.85443" fill="#03979C" fill-opacity="0.2"/>
<circle cx="26.981" cy="50.1074" r="3.85443" fill="#03979C" fill-opacity="0.2"/>
<circle cx="26.981" cy="73.2343" r="3.85443" fill="#03979C" fill-opacity="0.2"/>
<circle cx="26.981" cy="96.3608" r="3.85443" fill="#03979C" fill-opacity="0.2"/>
<circle cx="26.981" cy="119.487" r="3.85443" fill="#03979C" fill-opacity="0.2"/>
<circle cx="26.981" cy="142.614" r="3.85443" fill="#03979C" fill-opacity="0.2"/>
<circle cx="26.981" cy="165.741" r="3.85443" fill="#03979C" fill-opacity="0.2"/>
<circle cx="50.1076" cy="3.85443" r="3.85443" fill="#03979C" fill-opacity="0.2"/>
<circle cx="50.1076" cy="26.9809" r="3.85443" fill="#03979C" fill-opacity="0.2"/>
<circle cx="50.1076" cy="50.1074" r="3.85443" fill="#03979C" fill-opacity="0.2"/>
<circle cx="50.1076" cy="73.2343" r="3.85443" fill="#03979C" fill-opacity="0.2"/>
<circle cx="50.1076" cy="96.3608" r="3.85443" fill="#03979C" fill-opacity="0.2"/>
<circle cx="50.1076" cy="119.487" r="3.85443" fill="#03979C" fill-opacity="0.2"/>
<circle cx="50.1076" cy="142.614" r="3.85443" fill="#03979C" fill-opacity="0.2"/>
<circle cx="50.1076" cy="165.741" r="3.85443" fill="#03979C" fill-opacity="0.2"/>
<circle cx="73.2342" cy="3.85443" r="3.85443" fill="#03979C" fill-opacity="0.2"/>
<circle cx="73.2342" cy="26.9809" r="3.85443" fill="#03979C" fill-opacity="0.2"/>
<circle cx="73.2342" cy="50.1074" r="3.85443" fill="#03979C" fill-opacity="0.2"/>
<circle cx="73.2342" cy="73.2343" r="3.85443" fill="#03979C" fill-opacity="0.2"/>
<circle cx="73.2342" cy="96.3608" r="3.85443" fill="#03979C" fill-opacity="0.2"/>
<circle cx="73.2342" cy="119.487" r="3.85443" fill="#03979C" fill-opacity="0.2"/>
<circle cx="73.2342" cy="142.614" r="3.85443" fill="#03979C" fill-opacity="0.2"/>
<circle cx="73.2342" cy="165.741" r="3.85443" fill="#03979C" fill-opacity="0.2"/>
<circle cx="96.3608" cy="3.85443" r="3.85443" fill="#03979C" fill-opacity="0.2"/>
<circle cx="96.3608" cy="26.9809" r="3.85443" fill="#03979C" fill-opacity="0.2"/>
<circle cx="96.3608" cy="50.1074" r="3.85443" fill="#03979C" fill-opacity="0.2"/>
<circle cx="96.3608" cy="73.2343" r="3.85443" fill="#03979C" fill-opacity="0.2"/>
<circle cx="96.3608" cy="96.3608" r="3.85443" fill="#03979C" fill-opacity="0.2"/>
<circle cx="96.3608" cy="119.487" r="3.85443" fill="#03979C" fill-opacity="0.2"/>
<circle cx="96.3608" cy="142.614" r="3.85443" fill="#03979C" fill-opacity="0.2"/>
<circle cx="96.3608" cy="165.741" r="3.85443" fill="#03979C" fill-opacity="0.2"/>
<circle cx="119.487" cy="3.85443" r="3.85443" fill="#03979C" fill-opacity="0.2"/>
<circle cx="119.487" cy="26.9809" r="3.85443" fill="#03979C" fill-opacity="0.2"/>
<circle cx="119.487" cy="50.1074" r="3.85443" fill="#03979C" fill-opacity="0.2"/>
<circle cx="119.487" cy="73.2343" r="3.85443" fill="#03979C" fill-opacity="0.2"/>
<circle cx="119.487" cy="96.3608" r="3.85443" fill="#03979C" fill-opacity="0.2"/>
<circle cx="119.487" cy="119.487" r="3.85443" fill="#03979C" fill-opacity="0.2"/>
<circle cx="119.487" cy="142.614" r="3.85443" fill="#03979C" fill-opacity="0.2"/>
<circle cx="119.487" cy="165.741" r="3.85443" fill="#03979C" fill-opacity="0.2"/>
<circle cx="142.614" cy="3.85443" r="3.85443" fill="#03979C" fill-opacity="0.2"/>
<circle cx="142.614" cy="26.9809" r="3.85443" fill="#03979C" fill-opacity="0.2"/>
<circle cx="142.614" cy="50.1074" r="3.85443" fill="#03979C" fill-opacity="0.2"/>
<circle cx="142.614" cy="73.2343" r="3.85443" fill="#03979C" fill-opacity="0.2"/>
<circle cx="142.614" cy="96.3608" r="3.85443" fill="#03979C" fill-opacity="0.2"/>
<circle cx="142.614" cy="119.487" r="3.85443" fill="#03979C" fill-opacity="0.2"/>
<circle cx="142.614" cy="142.614" r="3.85443" fill="#03979C" fill-opacity="0.2"/>
<circle cx="142.614" cy="165.741" r="3.85443" fill="#03979C" fill-opacity="0.2"/>
<circle cx="165.74" cy="3.85443" r="3.85443" fill="#03979C" fill-opacity="0.2"/>
<circle cx="165.74" cy="26.9809" r="3.85443" fill="#03979C" fill-opacity="0.2"/>
<circle cx="165.74" cy="50.1074" r="3.85443" fill="#03979C" fill-opacity="0.2"/>
<circle cx="165.74" cy="73.2343" r="3.85443" fill="#03979C" fill-opacity="0.2"/>
<circle cx="165.74" cy="96.3608" r="3.85443" fill="#03979C" fill-opacity="0.2"/>
<circle cx="165.74" cy="119.487" r="3.85443" fill="#03979C" fill-opacity="0.2"/>
<circle cx="165.74" cy="142.614" r="3.85443" fill="#03979C" fill-opacity="0.2"/>
<circle cx="165.74" cy="165.741" r="3.85443" fill="#03979C" fill-opacity="0.2"/>
<circle cx="188.867" cy="3.85443" r="3.85443" fill="#03979C" fill-opacity="0.2"/>
<circle cx="188.867" cy="26.9809" r="3.85443" fill="#03979C" fill-opacity="0.2"/>
<circle cx="188.867" cy="50.1074" r="3.85443" fill="#03979C" fill-opacity="0.2"/>
<circle cx="188.867" cy="73.2343" r="3.85443" fill="#03979C" fill-opacity="0.2"/>
<circle cx="188.867" cy="96.3608" r="3.85443" fill="#03979C" fill-opacity="0.2"/>
<circle cx="188.867" cy="119.487" r="3.85443" fill="#03979C" fill-opacity="0.2"/>
<circle cx="188.867" cy="142.614" r="3.85443" fill="#03979C" fill-opacity="0.2"/>
<circle cx="188.867" cy="165.741" r="3.85443" fill="#03979C" fill-opacity="0.2"/>
<circle cx="211.994" cy="3.85443" r="3.85443" fill="#03979C" fill-opacity="0.2"/>
<circle cx="211.994" cy="26.9809" r="3.85443" fill="#03979C" fill-opacity="0.2"/>
<circle cx="211.994" cy="50.1074" r="3.85443" fill="#03979C" fill-opacity="0.2"/>
<circle cx="211.994" cy="73.2343" r="3.85443" fill="#03979C" fill-opacity="0.2"/>
<circle cx="211.994" cy="96.3608" r="3.85443" fill="#03979C" fill-opacity="0.2"/>
<circle cx="211.994" cy="119.487" r="3.85443" fill="#03979C" fill-opacity="0.2"/>
<circle cx="211.994" cy="142.614" r="3.85443" fill="#03979C" fill-opacity="0.2"/>
<circle cx="211.994" cy="165.741" r="3.85443" fill="#03979C" fill-opacity="0.2"/>
<path d="M151.247 102.902L150.931 104.218C139.1 102.39 133.995 105.213 132.187 112.748C129.833 122.556 136.708 130.277 135.043 137.214C134.01 141.52 130.953 143.19 124.135 141.553C122.222 141.094 120.217 140.487 117.854 139.793L115.122 150.648C117.605 151.371 119.94 152.184 124.843 153.361C138.598 156.662 146.109 152.772 148.085 144.012C150.639 133.368 141.822 125.306 144.004 116.217C145.295 110.834 149.127 109.098 156.902 110.964L165.154 112.944L167.824 101.821L159.571 99.8404C152.754 98.2043 148.482 94.3961 149.859 88.6551C152.098 79.326 164.092 76.2594 166.704 65.3754C168.8 56.6443 163.872 49.7695 150.118 46.4685C145.214 45.2916 142.884 44.9855 140.344 44.5023L137.76 55.2666C140.181 55.7211 142.334 56.2378 144.128 56.6683C150.945 58.3045 153.031 61.2085 151.998 65.5142C150.362 72.3316 140.97 76.1494 138.617 85.9569C136.808 93.4919 141.066 98.9411 151.247 102.902Z" fill="#FBBF31"/>
</svg>
