<svg width="51" height="51" viewBox="0 0 51 51" fill="none" xmlns="http://www.w3.org/2000/svg">
<path fillRule="evenodd" clipRule="evenodd" d="M34.5312 41.4204V44.0937C34.5312 44.5164 34.3633 44.9217 34.0645 45.2206C33.7656 45.5195 33.3602 45.6874 32.9375 45.6874C32.5148 45.6874 32.1094 45.5195 31.8105 45.2206C31.5117 44.9217 31.3437 44.5164 31.3437 44.0937V41.4374H34C34.1785 41.4374 34.3549 41.4311 34.5312 41.4204ZM31.3437 41.4374H17C14.8866 41.4374 12.8597 40.5979 11.3652 39.1034C9.87081 37.609 9.03125 35.5821 9.03125 33.4687V26.9194L21.1735 33.6281C22.5033 34.3436 23.9899 34.7181 25.5 34.7181C27.0101 34.7181 28.4967 34.3436 29.8265 33.6281L31.3437 32.7908V41.4374ZM34.5312 31.0292L41.9687 26.9194V33.4687C41.9689 35.4903 41.2008 37.4364 39.8198 38.9128C38.4388 40.3893 36.5484 41.2857 34.5312 41.4204V31.0292Z" fill="#F4F4F4"/>
<path fillRule="evenodd" clipRule="evenodd" d="M31.3437 30.362L28.798 31.7687C27.7845 32.3148 26.6513 32.6007 25.5 32.6007C24.3487 32.6007 23.2155 32.3148 22.202 31.7687L4.53475 22.0065C3.332 21.3413 2.65625 20.1768 2.65625 18.9592C2.65625 17.7395 3.332 16.575 4.53475 15.912L22.202 6.14759C23.2159 5.60262 24.349 5.31738 25.5 5.31738C26.651 5.31738 27.7841 5.60262 28.798 6.14759L46.4652 15.912C47.668 16.575 48.3437 17.7395 48.3437 18.9592C48.3437 20.1768 47.668 21.3413 46.4652 22.0065L34.5312 28.6003V27.0937C34.5314 26.8844 34.4902 26.6772 34.41 26.4839C34.3297 26.2906 34.2121 26.1151 34.0638 25.9675L26.6262 18.53C26.4783 18.3821 26.3028 18.2647 26.1095 18.1847C25.9163 18.1047 25.7092 18.0635 25.5 18.0635C25.2908 18.0635 25.0837 18.1047 24.8905 18.1847C24.6972 18.2647 24.5217 18.3821 24.3737 18.53C24.2258 18.6779 24.1085 18.8535 24.0285 19.0467C23.9484 19.2399 23.9072 19.4471 23.9072 19.6562C23.9072 19.8654 23.9484 20.0725 24.0285 20.2657C24.1085 20.459 24.2258 20.6346 24.3737 20.7825L31.3437 27.7546V30.362Z" fill="#F4F4F4"/>
</svg>
