<svg width="58" height="57" viewBox="0 0 58 57" fill="none" xmlns="http://www.w3.org/2000/svg">
<path d="M34.3269 7.19631C34.9379 7.34938 35.4631 7.7389 35.7869 8.27916C36.1107 8.81942 36.2066 9.46619 36.0535 10.0772L26.5535 48.0772C26.3969 48.6842 26.0065 49.2047 25.4676 49.5251C24.9287 49.8455 24.2849 49.9398 23.6768 49.7874C23.0686 49.6351 22.5454 49.2484 22.2211 48.7118C21.8969 48.1752 21.798 47.5322 21.946 46.9229L31.446 8.92293C31.5991 8.31195 31.9886 7.78679 32.5289 7.46299C33.0692 7.13919 33.7159 7.04326 34.3269 7.19631Z" fill="#03979C"/>
<path d="M3.57037 30.1791C3.12512 29.7338 2.875 29.1298 2.875 28.5C2.875 27.8702 3.12512 27.2663 3.57037 26.8209L13.0704 17.3209C13.2895 17.094 13.5515 16.9131 13.8413 16.7886C14.131 16.6642 14.4427 16.5987 14.758 16.5959C15.0734 16.5932 15.3861 16.6533 15.678 16.7727C15.9699 16.8921 16.2351 17.0685 16.4581 17.2914C16.6811 17.5144 16.8574 17.7796 16.9768 18.0715C17.0962 18.3634 17.1563 18.6761 17.1536 18.9915C17.1508 19.3068 17.0853 19.6185 16.9609 19.9082C16.8364 20.198 16.6555 20.46 16.4286 20.6791L8.60774 28.5L16.4286 36.3209C16.6555 36.54 16.8364 36.802 16.9609 37.0918C17.0853 37.3816 17.1508 37.6932 17.1536 38.0086C17.1563 38.3239 17.0962 38.6366 16.9768 38.9285C16.8574 39.2204 16.6811 39.4856 16.4581 39.7086C16.2351 39.9316 15.9699 40.1079 15.678 40.2273C15.3861 40.3468 15.0734 40.4068 14.758 40.4041C14.4427 40.4014 14.131 40.3358 13.8413 40.2114C13.5515 40.0869 13.2895 39.906 13.0704 39.6791L3.57037 30.1791ZM44.9286 17.3209C44.7095 17.094 44.4475 16.9131 44.1577 16.7886C43.8679 16.6642 43.5563 16.5987 43.2409 16.5959C42.9256 16.5932 42.6129 16.6533 42.321 16.7727C42.0291 16.8921 41.7639 17.0685 41.5409 17.2914C41.3179 17.5144 41.1416 17.7796 41.0222 18.0715C40.9027 18.3634 40.8427 18.6761 40.8454 18.9915C40.8481 19.3068 40.9137 19.6185 41.0381 19.9082C41.1626 20.198 41.3435 20.46 41.5704 20.6791L49.3912 28.5L41.5704 36.3209C41.3435 36.54 41.1626 36.802 41.0381 37.0918C40.9137 37.3816 40.8481 37.6932 40.8454 38.0086C40.8427 38.3239 40.9027 38.6366 41.0222 38.9285C41.1416 39.2204 41.3179 39.4856 41.5409 39.7086C41.7639 39.9316 42.0291 40.1079 42.321 40.2273C42.6129 40.3468 42.9256 40.4068 43.2409 40.4041C43.5563 40.4014 43.8679 40.3358 44.1577 40.2114C44.4475 40.0869 44.7095 39.906 44.9286 39.6791L54.4286 30.1791C54.8739 29.7338 55.124 29.1298 55.124 28.5C55.124 27.8702 54.8739 27.2663 54.4286 26.8209L44.9286 17.3209Z" fill="#03979C"/>
</svg>
