<svg width="37" height="37" viewBox="0 0 37 37" fill="none" xmlns="http://www.w3.org/2000/svg">
<g clip-path="url(#clip0_1127_1238)">
<path d="M0 33.9166H21.5833V37H0V33.9166ZM18.5 30.8082C18.5 30.3994 18.3376 30.0072 18.0485 29.7181C17.7593 29.429 17.3672 29.2666 16.9583 29.2666H4.625C4.21613 29.2666 3.824 29.429 3.53488 29.7181C3.24576 30.0072 3.08333 30.3994 3.08333 30.8082V32.375H18.5V30.8082ZM20.9767 18.2036C20.2584 18.9691 19.656 19.8358 19.1887 20.7758L31.8782 33.4653C32.1673 33.7543 32.5594 33.9167 32.9682 33.9167C33.377 33.9167 33.769 33.7543 34.0581 33.4653L36.2384 31.285C36.3816 31.1418 36.4951 30.9719 36.5726 30.7848C36.6501 30.5978 36.69 30.3973 36.69 30.1948C36.69 29.9924 36.6501 29.7919 36.5726 29.6049C36.4951 29.4178 36.3816 29.2479 36.2384 29.1047L23.549 16.4187C22.6072 16.8819 21.7402 17.4835 20.9767 18.2036ZM13.3458 10.5727C12.18 11.6546 10.8304 12.5198 9.36062 13.1276L17.3287 21.0957C17.942 19.6285 18.808 18.2802 19.8875 17.1125C21.0535 16.0306 22.403 15.1653 23.8727 14.5571L15.9042 6.59058C15.2908 8.0573 14.4249 9.40509 13.3458 10.5727Z" fill="#03979C"/>
<path d="M18.7938 0.762956L16.6136 2.9432C16.0115 3.54526 16.0115 4.52139 16.6136 5.12345L25.3345 13.8444C25.9366 14.4465 26.9127 14.4465 27.5148 13.8444L29.695 11.6642C30.2971 11.0621 30.2971 10.086 29.695 9.48394L20.9741 0.762956C20.372 0.160898 19.3959 0.160898 18.7938 0.762956Z" fill="#03979C"/>
<path d="M5.71178 13.8419L3.53153 16.0221C2.92947 16.6242 2.92947 17.6003 3.53153 18.2024L12.2525 26.9234C12.8546 27.5254 13.8307 27.5254 14.4328 26.9234L16.613 24.7431C17.2151 24.141 17.2151 23.1649 16.613 22.5629L7.89202 13.8419C7.28996 13.2398 6.31383 13.2398 5.71178 13.8419Z" fill="#03979C"/>
</g>
<defs>
<clipPath id="clip0_1127_1238">
<rect width="37" height="37" fill="white"/>
</clipPath>
</defs>
</svg>
