<svg width="303" height="113" viewBox="0 0 303 113" fill="none" xmlns="http://www.w3.org/2000/svg">
<path fill-rule="evenodd" clip-rule="evenodd" d="M128.536 48.6807C114.318 49.2237 100.266 49.8914 86.564 50.6213C67.1667 51.6539 47.777 52.7221 28.5042 54.4134C22.4375 54.9475 16.2768 55.2858 10.248 55.9534C6.46357 56.3718 1.44546 56.9681 0.786896 57.0927C0.44244 57.1639 0.292166 57.2708 0.243608 57.3065C-0.0978127 57.5557 -0.0355159 57.7959 0.157197 57.9829C0.234586 58.063 0.430279 58.2589 0.973518 58.2856C37.3037 60.1104 74.4534 56.5498 110.828 56.1759C173.907 55.535 238.898 58.0809 301.477 63.6355C302.023 63.68 302.554 63.4574 302.63 63.128C302.721 62.8076 302.327 62.496 301.781 62.4515C239.096 56.888 173.998 54.3332 110.797 54.983C76.8979 55.3302 42.3295 58.4547 8.38311 57.3865C9.16306 57.2975 9.92789 57.2085 10.6259 57.1284C16.6304 56.4607 22.7653 56.1314 28.8077 55.5973C48.0396 53.906 67.3898 52.8378 86.7613 51.8141C110.797 50.5323 135.88 49.4285 161.161 48.9122C170.205 48.9923 179.218 49.0724 188.231 49.1703C207.73 49.384 227.321 50.0071 246.774 50.8439C252.631 51.102 258.488 51.369 264.346 51.6005C266.288 51.6806 271.296 51.912 271.994 51.8942C272.858 51.8764 273.025 51.4491 273.04 51.3779C273.086 51.2177 273.056 50.9951 272.631 50.8082C272.585 50.7815 272.312 50.6924 271.705 50.639C236.334 47.4878 198.565 46.9627 161.191 47.7194C121.768 47.39 82.1938 47.2475 42.8712 47.0962C42.3083 47.0962 41.8485 47.3633 41.8439 47.6926C41.8409 48.022 42.2945 48.2891 42.8575 48.298C71.3305 48.4048 99.9477 48.5116 128.536 48.6807Z" fill="#FBBF31"/>
</svg>
