<svg
          width="235"
          height="50"
          viewBox="0 20 235 50"
          fill="none"
          xmlns="http://www.w3.org/2000/svg"
          className="support-card"
          style="clip-path: inset(10px 0 10px 0);"


        >
          <path
            fillRule="evenodd"
            clipRule="evenodd"
            d="M99.6896 39.634C88.6622 40.0761 77.7643 40.6197 67.1371 41.214C52.093 42.0547 37.0548 42.9244 22.1072 44.3014C17.402 44.7362 12.6239 45.0116 7.94814 45.5552C5.013 45.8958 1.12107 46.3813 0.610299 46.4828C0.343147 46.5407 0.226597 46.6278 0.188937 46.6568C-0.0758613 46.8597 -0.0275454 47.0553 0.121919 47.2075C0.18194 47.2727 0.333715 47.4322 0.755038 47.454C28.9319 48.9397 57.7444 46.0407 85.9554 45.7363C134.878 45.2145 185.284 47.2873 233.819 51.8096C234.242 51.8459 234.654 51.6646 234.713 51.3965C234.784 51.1356 234.478 50.8819 234.054 50.8457C185.437 46.3161 134.949 44.2361 85.9319 44.7651C59.6403 45.0478 32.8298 47.5917 6.50175 46.722C7.10666 46.6495 7.69985 46.577 8.24121 46.5118C12.8981 45.9682 17.6563 45.7001 22.3426 45.2652C37.2584 43.8883 52.266 43.0186 67.2901 42.1851C85.9319 41.1415 105.386 40.2428 124.993 39.8225C132.007 39.8877 138.997 39.953 145.988 40.0327C161.111 40.2066 176.305 40.7139 191.392 41.3952C195.935 41.6054 200.478 41.8228 205.021 42.0112C206.527 42.0764 210.411 42.2648 210.952 42.2503C211.623 42.2358 211.752 41.888 211.764 41.83C211.799 41.6996 211.776 41.5184 211.446 41.3662C211.411 41.3444 211.199 41.2719 210.728 41.2284C183.295 38.6629 154.003 38.2353 125.016 38.8514C94.4407 38.5832 63.7477 38.4672 33.2499 38.344C32.8133 38.344 32.4567 38.5614 32.4532 38.8296C32.4508 39.0978 32.8027 39.3152 33.2393 39.3225C55.3223 39.4094 77.5172 39.4963 99.6896 39.634Z"
            fill="#03979C"
          />
        </svg>