<svg width="38" height="38" viewBox="0 0 38 38" fill="none" xmlns="http://www.w3.org/2000/svg">
<path d="M19.0004 0C11.4119 0 5.23828 6.17366 5.23828 13.7621C5.23828 23.1796 17.5541 37.0049 18.0784 37.5889C18.5709 38.1375 19.4308 38.1365 19.9225 37.5889C20.4468 37.0049 32.7626 23.1796 32.7626 13.7621C32.7625 6.17366 26.5889 0 19.0004 0ZM19.0004 20.6862C15.1825 20.6862 12.0764 17.58 12.0764 13.7621C12.0764 9.94412 15.1826 6.83807 19.0004 6.83807C22.8183 6.83807 25.9244 9.9442 25.9244 13.7622C25.9244 17.5801 22.8183 20.6862 19.0004 20.6862Z" fill="#03979C"/>
</svg>
