<svg width="49" height="49" viewBox="0 0 49 49" fill="none" xmlns="http://www.w3.org/2000/svg">
<g clip-path="url(#clip0_163_1053)">
<path d="M11.8872 17.98C13.7261 17.98 15.2168 16.4893 15.2168 14.6504C15.2168 12.8115 13.7261 11.3208 11.8872 11.3208C10.0483 11.3208 8.55762 12.8115 8.55762 14.6504C8.55762 16.4893 10.0483 17.98 11.8872 17.98Z" fill="#F4F4F4"/>
<path d="M32.2569 6.65921C34.0957 6.65921 35.5865 5.1685 35.5865 3.32961C35.5865 1.49072 34.0957 0 32.2569 0C30.418 0 28.9272 1.49072 28.9272 3.32961C28.9272 5.1685 30.418 6.65921 32.2569 6.65921Z" fill="#F4F4F4"/>
<path d="M44.8159 36.3392H43.2949C43.3299 36.3271 43.365 36.3161 43.3997 36.3019C44.3449 35.9125 44.7955 34.8306 44.4061 33.8853L41.1887 26.0762L40.9453 20.2598C40.9356 20.0352 40.8848 19.8142 40.7955 19.6079L38.3922 8.83104C38.1218 7.61856 36.9197 6.85484 35.7072 7.1252L31.7922 7.99831C30.5798 8.26868 29.816 9.47082 30.0864 10.6833L30.4369 12.2546L31.9595 9.85173L30.3701 14.4369L25.1298 16.6904C24.3784 17.0135 24.0313 17.8845 24.3544 18.6358C24.6774 19.3868 25.5479 19.7344 26.2997 19.4112L32.1402 16.8997C32.3293 16.8184 32.4994 16.6985 32.6395 16.5478C32.7797 16.3971 32.8869 16.2188 32.9544 16.0243L34.7578 10.8222L34.1786 16.4486C34.0597 17.6037 33.081 17.9058 32.652 18.09L31.8183 18.4486L32.3072 20.6412L30.703 25.0147C30.6571 25.1401 30.6248 25.27 30.6066 25.4024L29.39 34.3409C29.269 35.2299 29.8008 36.0569 30.6174 36.3393H29.0641C28.8829 36.3393 28.7091 36.4113 28.581 36.5394C28.4528 36.6675 28.3808 36.8413 28.3808 37.0225V42.6697H20.981C21.5611 42.2911 21.9053 41.6027 21.8057 40.8706L20.5889 31.9321C20.5359 31.5428 20.3604 31.1804 20.0878 30.8974C19.8151 30.6145 19.4595 30.4256 19.0724 30.3582L15.6064 29.7543V26.6105L11.2419 23.0534L16.1933 25.4617C16.3783 25.5518 16.5802 25.6022 16.7858 25.6099C16.9915 25.6175 17.1965 25.5822 17.3878 25.5061L23.296 23.1583C24.056 22.8562 24.4272 21.9954 24.1253 21.2352C23.8232 20.4752 22.9622 20.104 22.2022 20.4059L16.9012 22.5126L12.5374 20.3899L15.5887 21.0774C15.4519 19.9662 14.5052 19.1058 13.3571 19.1058H9.34591C8.10366 19.1058 7.09666 20.1129 7.09666 21.355V32.8954H7.09867L6.85855 38.6345L3.64106 46.4436C3.25154 47.3888 3.70222 48.4708 4.64739 48.8602C5.59334 49.2498 6.6748 48.7986 7.06403 47.8539L10.4058 39.7431C10.4881 39.5435 10.5348 39.3311 10.5437 39.1154L10.8007 32.973C10.8018 32.9468 10.8 32.9214 10.8 32.8956H12.3262C12.5912 33.0042 12.3425 32.9434 17.1032 33.7731L18.1374 41.3701C18.2128 41.9245 18.5275 42.3865 18.962 42.6699H11.9457C11.7645 42.67 11.5908 42.7419 11.4626 42.8701C11.3345 42.9982 11.2625 43.172 11.2625 43.3532V48.3174C11.2625 48.4071 11.2802 48.4959 11.3145 48.5788C11.3488 48.6617 11.3992 48.737 11.4626 48.8004C11.526 48.8639 11.6014 48.9142 11.6843 48.9485C11.7672 48.9828 11.856 49.0005 11.9457 49.0005H44.8158C44.9055 49.0005 44.9944 48.9828 45.0772 48.9485C45.1601 48.9142 45.2355 48.8639 45.2989 48.8004C45.3624 48.737 45.4127 48.6617 45.447 48.5788C45.4814 48.4959 45.499 48.4071 45.499 48.3174V37.0227C45.4991 36.933 45.4814 36.8441 45.4471 36.7612C45.4128 36.6782 45.3625 36.6029 45.2991 36.5394C45.2356 36.4759 45.1603 36.4256 45.0774 36.3912C44.9945 36.3569 44.9056 36.3392 44.8159 36.3392ZM31.827 36.3391C32.4658 36.1181 32.9607 35.5555 33.058 34.84L34.2476 26.1005L36.0537 21.1762L37.2669 20.9057L37.5034 26.5569C37.5124 26.7726 37.559 26.9851 37.6413 27.1847L40.983 35.2954C41.1935 35.8065 41.6069 36.1718 42.0913 36.3391H31.827Z" fill="#F4F4F4"/>
</g>
<defs>
<clipPath id="clip0_163_1053">
<rect width="49" height="49" fill="white"/>
</clipPath>
</defs>
</svg>
