<svg width="49" height="49" viewBox="0 0 49 49" fill="none" xmlns="http://www.w3.org/2000/svg">
<path fill-rule="evenodd" clip-rule="evenodd" d="M22.1809 5.60533L22.181 5.60524L24.5001 0L26.8191 5.60533L32.4059 6.22874L28.2523 10.0163L29.3859 15.5225L24.4999 12.7428L19.6141 15.5226L20.7478 10.0163L16.5944 6.22884L22.1809 5.60533ZM10.3398 41.6773C9.59195 41.2775 9.30876 40.3435 9.7088 39.5955C9.7088 39.5955 11.2086 36.7917 11.2094 36.7897C11.6032 36.0535 12.5583 35.7661 13.2928 36.1586C14.0285 36.5525 14.3159 37.5061 13.9226 38.2408L12.4193 41.0505C12.0178 41.7949 11.0865 42.0765 10.3398 41.6773ZM40.7098 34.2552C40.4568 33.9427 40.1477 33.6802 39.7984 33.4811L31.6256 28.823C30.9104 28.415 30.1736 28.2541 29.4252 28.2541C27.9768 28.2541 26.4853 28.858 25.027 29.4479C22.2568 30.5702 19.8346 31.5504 17.5707 29.0787C19.7655 27.7468 21.6405 26.3011 23.1533 24.7728C23.8193 24.0997 24.4959 23.524 25.1639 23.062C28.3568 20.8548 30.5652 21.7572 32.701 22.6302C34.2579 23.2667 35.8677 23.9251 37.5541 23.0473L40.8964 21.2583L45.1935 32.344L40.7098 34.2552ZM39.5992 37.009C40.0017 36.2771 39.7248 35.3371 38.9818 34.9137L30.809 30.2556C29.4047 29.4546 27.6626 30.1598 25.6459 30.9773C22.6169 32.2027 18.8473 33.7296 15.6607 29.3385C15.5927 29.2447 15.5453 29.1378 15.5213 29.0245C15.4974 28.9112 15.4976 28.7942 15.5218 28.681C15.5461 28.5678 15.5939 28.461 15.6622 28.3676C15.7305 28.2742 15.8177 28.1962 15.9182 28.1387C18.3451 26.748 20.3849 25.2254 21.9809 23.6124C22.3804 23.2078 22.7995 22.823 23.2368 22.4595C21.4247 21.6363 19.8899 21.9985 18.2796 22.3793C16.7228 22.7469 15.1134 23.1272 13.4704 22.2183L8.81475 20.0705L3.8512 30.632C3.93322 30.668 4.02385 30.7093 4.12414 30.7545C5.51347 31.3803 8.09965 32.546 8.57444 32.7307C9.78795 33.2013 10.0798 34.3796 10.256 35.3187C10.6314 34.9238 11.1047 34.6301 11.6421 34.4672C12.4587 34.2202 13.3207 34.3048 14.0692 34.7044C14.8155 35.1022 15.3641 35.7713 15.6123 36.5873C15.6737 36.7887 15.7153 36.9955 15.7366 37.2049C16.4553 37.0449 17.2322 37.1295 17.9311 37.5039C18.6774 37.9017 19.226 38.5708 19.4743 39.3868C19.4903 39.4394 19.5051 39.4929 19.5183 39.5468C19.5688 39.5285 19.6199 39.5116 19.6715 39.4963C20.4881 39.2479 21.3501 39.3325 22.0985 39.7336C22.8448 40.1304 23.3933 40.7991 23.6415 41.6155C23.6576 41.669 23.6723 41.7216 23.6855 41.7751C23.7363 41.7574 23.7874 41.7405 23.8388 41.7246C24.6554 41.4775 25.5173 41.5621 26.2658 41.9619C26.6263 42.1536 26.9461 42.4133 27.2076 42.7268L30.7935 44.7098C31.537 45.1193 32.4742 44.847 32.883 44.1039C33.2878 43.3667 33.0125 42.4278 32.2695 42.0105L27.225 39.1706C26.8281 38.947 26.6874 38.4441 26.9108 38.0474C26.9639 37.953 27.0351 37.87 27.1202 37.8032C27.2054 37.7363 27.303 37.6869 27.4073 37.6578C27.5116 37.6287 27.6206 37.6204 27.7281 37.6334C27.8356 37.6464 27.9394 37.6805 28.0338 37.7337L34.4158 41.3001C35.159 41.7086 36.0965 41.4362 36.5052 40.6933C36.9099 39.957 36.6348 39.0181 35.8916 38.5998C35.8716 38.5882 30.8479 35.7478 30.8479 35.7478C30.4515 35.5231 30.3115 35.0198 30.5354 34.6245C30.7596 34.2277 31.2626 34.0872 31.659 34.3109L37.5178 37.6204C38.2334 38.0244 39.2051 37.7253 39.5992 37.009ZM29.9295 47.8719C29.5207 48.615 28.5833 48.8874 27.84 48.4793L26.7239 47.8646L27.5737 46.2754C27.7816 45.8876 27.9062 45.4606 27.9396 45.0218L29.3135 45.7775L29.3209 45.7814C30.0642 46.1928 30.3371 47.1308 29.9295 47.8719ZM23.7696 48.9324C23.3745 49.0521 22.9587 49.0117 22.5988 48.8191C21.8508 48.4194 21.5676 47.4853 21.9675 46.7369L23.4064 44.0468C23.8006 43.3101 24.7526 43.0222 25.4896 43.4171C26.2121 43.8036 26.5153 44.7582 26.1195 45.4983L24.6808 48.1884C24.4881 48.5484 24.1647 48.8129 23.7696 48.9324ZM19.3966 47.0876C19.0016 47.2072 18.5857 47.1668 18.2257 46.9743C17.4777 46.5745 17.1947 45.6404 17.5947 44.892L19.2385 41.8183C19.2385 41.8183 19.2387 41.8183 19.2387 41.8179C19.4312 41.458 19.7548 41.194 20.1498 41.0743C20.5449 40.9547 20.9609 40.9951 21.3222 41.1877C21.6804 41.3783 21.9439 41.7012 22.0638 42.0961C22.1844 42.4929 22.1448 42.9091 21.9521 43.269L20.3078 46.3438C20.1155 46.7029 19.7918 46.9679 19.3966 47.0876ZM14.8401 45.586C15.2353 45.4664 15.5587 45.2014 15.7513 44.8415L17.7845 41.0403C18.1775 40.3056 17.8898 39.3519 17.1549 38.9595C16.4435 38.5788 15.4564 38.8705 15.0753 39.582C15.0743 39.584 13.0382 43.3906 13.0382 43.3906C12.638 44.139 12.921 45.0725 13.6693 45.4728C14.0292 45.6652 14.4452 45.7056 14.8401 45.586ZM43.8699 13.1304L43.8701 13.1305L44.7584 17.4459L40.9291 15.2668L37.0993 17.446L37.9879 13.1305L34.7324 10.1617L39.1113 9.67319L40.929 5.65931L42.7467 9.67281L47.1256 10.1619L43.8699 13.1304ZM1.87445 10.1615L6.25344 9.673L8.07113 5.65912L9.88892 9.67262L14.2674 10.1617L11.0122 13.1303L11.9008 17.4458L8.07113 15.2668L4.24157 17.4458L5.12998 13.1303L1.87445 10.1615Z" fill="#F4F4F4"/>
</svg>
