<?xml version="1.0" standalone="no"?>
<!DOCTYPE svg PUBLIC "-//W3C//DTD SVG 20010904//EN"
 "http://www.w3.org/TR/2001/REC-SVG-20010904/DTD/svg10.dtd">
<svg version="1.0" xmlns="http://www.w3.org/2000/svg"
 width="962.000000pt" height="916.000000pt" viewBox="0 0 962.000000 916.000000"
 preserveAspectRatio="xMidYMid meet">

<g transform="translate(0.000000,916.000000) scale(0.100000,-0.100000)"
fill="#000000" stroke="none">
<path d="M4160 8110 c-25 -5 -77 -9 -117 -9 -39 -1 -74 -5 -77 -10 -3 -4 -30
-11 -61 -14 -31 -3 -68 -14 -84 -24 -15 -10 -50 -31 -77 -48 -66 -41 -114 -89
-114 -114 0 -35 -28 -91 -44 -91 -9 0 -16 -4 -16 -9 0 -5 -15 -13 -32 -16 -18
-4 -38 -11 -43 -16 -6 -4 -20 -8 -30 -7 -52 3 -224 -73 -310 -137 -16 -13 -39
-25 -50 -29 -12 -3 -28 -18 -38 -33 -17 -29 -28 -42 -147 -173 -67 -73 -140
-172 -140 -187 0 -5 -9 -14 -20 -21 -11 -7 -20 -20 -20 -29 0 -17 -25 -52 -79
-113 -17 -19 -33 -43 -37 -52 -3 -10 -10 -18 -15 -18 -5 0 -9 -6 -9 -13 0 -7
-8 -22 -17 -33 -26 -29 -53 -83 -53 -103 0 -10 -13 -45 -29 -77 -60 -121 -81
-168 -81 -181 0 -7 -13 -42 -28 -76 -16 -35 -32 -87 -36 -117 -4 -30 -19 -93
-34 -140 -24 -76 -27 -99 -26 -222 2 -134 3 -140 44 -260 27 -76 44 -143 45
-176 1 -32 7 -57 15 -62 8 -5 13 -32 15 -76 1 -49 8 -81 23 -109 12 -22 22
-45 22 -51 0 -6 13 -28 30 -50 16 -21 30 -45 30 -51 0 -20 74 -69 126 -83 40
-11 49 -19 65 -54 9 -22 15 -44 13 -48 -3 -4 6 -8 20 -8 14 0 26 -5 26 -12 0
-6 21 -30 46 -54 l46 -42 -23 -15 c-13 -9 -44 -23 -69 -33 -25 -9 -50 -21 -57
-26 -7 -6 -17 -7 -23 -3 -7 4 -32 1 -57 -5 -54 -16 -67 -39 -55 -95 9 -44 36
-65 86 -65 23 0 27 -4 23 -19 -3 -13 1 -21 14 -24 11 -3 17 -1 14 3 -8 13 24
20 94 22 34 1 64 5 67 10 3 4 14 8 26 8 16 0 18 -3 9 -14 -22 -26 -105 -58
-184 -71 -43 -7 -81 -15 -84 -19 -3 -3 20 -6 53 -7 53 -1 56 -2 34 -12 -14 -7
-36 -20 -50 -29 -27 -20 -45 -24 -35 -8 4 6 -6 10 -22 11 -15 0 -22 3 -15 6
19 8 14 23 -8 23 -27 0 -25 18 3 23 12 2 -6 5 -41 6 -35 0 -61 -3 -58 -7 3 -5
-8 -7 -23 -4 -43 6 -45 -11 -5 -53 24 -26 32 -40 24 -45 -9 -6 -9 -9 1 -13 10
-4 11 -8 3 -14 -6 -4 -14 -28 -18 -52 -4 -24 -21 -90 -37 -145 -27 -86 -31
-117 -31 -208 0 -61 6 -124 13 -145 7 -21 13 -42 13 -48 2 -22 41 -74 60 -80
13 -4 16 -8 9 -12 -7 -2 -13 -11 -13 -19 0 -8 -5 -23 -12 -34 -15 -24 -9 -31
20 -23 17 4 21 10 16 29 -8 31 6 31 35 0 32 -34 21 -57 -54 -111 -92 -65 -138
-137 -95 -148 11 -3 20 -1 20 5 0 5 21 30 47 55 l47 47 9 -30 c22 -73 24 -95
14 -150 -5 -33 -18 -71 -28 -86 -11 -14 -19 -36 -19 -47 0 -30 -24 -26 -54 9
-23 27 -25 38 -22 101 2 38 -1 72 -5 75 -5 3 -9 -4 -9 -15 0 -12 -5 -21 -11
-21 -13 0 -4 -110 9 -120 5 -3 23 -26 41 -52 48 -67 49 -60 -100 -558 -43
-146 -84 -278 -90 -295 -5 -16 -33 -104 -60 -195 -28 -91 -70 -226 -94 -300
-24 -74 -49 -155 -55 -180 -6 -25 -33 -115 -60 -200 -27 -85 -60 -195 -75
-244 -14 -48 -41 -119 -60 -157 -18 -38 -39 -86 -45 -107 -7 -20 -20 -56 -31
-79 -10 -24 -19 -58 -19 -77 0 -18 -17 -89 -39 -157 -48 -155 -63 -210 -59
-214 3 -3 86 -8 106 -6 6 0 12 11 12 24 0 33 68 266 90 307 28 52 68 185 83
275 13 77 35 151 152 530 29 94 69 222 88 285 210 681 311 1000 326 1026 5 11
13 33 16 49 6 27 10 21 42 -65 19 -52 42 -108 50 -123 8 -16 13 -37 10 -48 -3
-12 0 -19 9 -19 7 0 19 -10 25 -22 6 -12 36 -46 65 -76 29 -30 51 -59 48 -64
-10 -15 66 -76 104 -83 21 -4 44 -13 53 -21 16 -15 109 -36 109 -25 0 3 4 0 8
-6 5 -7 28 -13 53 -14 24 -1 67 -8 95 -15 64 -18 319 -13 337 6 9 10 9 11 -3
8 -8 -3 -32 1 -53 8 -25 9 -59 11 -99 7 -45 -5 -59 -3 -54 5 4 7 18 12 30 12
25 0 49 21 44 38 -2 5 15 24 37 42 22 17 71 66 108 108 77 88 138 143 149 136
4 -3 8 0 8 6 0 14 41 3 52 -14 14 -20 8 -61 -13 -95 -24 -39 -22 -46 7 -22 29
23 47 83 45 150 -1 54 23 141 40 141 12 0 25 -29 33 -72 4 -21 11 -38 16 -38
6 0 10 -8 10 -17 0 -15 2 -16 9 -3 6 8 7 19 3 25 -3 5 -7 26 -7 45 -1 19 -4
49 -9 65 -7 28 -6 29 8 11 8 -10 17 -24 19 -30 2 -6 7 -8 11 -5 3 3 -4 26 -17
50 -13 24 -22 50 -20 57 3 6 -3 12 -11 12 -9 0 -19 8 -23 18 -3 9 -13 25 -21
35 -8 9 -10 17 -5 17 6 0 14 27 18 60 7 62 25 77 35 29 3 -16 12 -24 25 -24
12 0 21 -8 23 -20 8 -55 13 -65 32 -65 26 0 25 7 -2 31 -20 16 -21 20 -8 29
13 9 13 12 -2 24 -10 7 -18 24 -18 38 0 13 -6 30 -12 37 -11 10 -9 15 5 26 16
11 17 17 7 36 -25 46 -30 80 -15 115 8 19 19 34 24 34 6 0 8 7 5 15 -11 26 14
16 38 -16 13 -18 53 -63 89 -100 59 -61 70 -68 96 -63 16 3 38 13 49 22 21 16
21 20 8 92 -13 74 -10 120 7 120 5 0 8 4 6 9 -1 5 6 16 17 24 10 7 19 25 19
40 0 19 5 27 21 29 13 2 21 11 22 23 0 11 1 36 2 56 2 34 5 37 37 43 19 4 35
11 35 15 0 15 -51 23 -66 10 -11 -9 -14 -8 -14 4 0 9 4 18 9 21 4 3 7 21 6 41
-1 26 3 36 17 41 20 6 24 19 8 29 -5 3 -7 12 -3 20 4 12 -4 15 -36 15 -23 0
-41 5 -41 10 0 6 -7 10 -16 10 -9 0 -22 8 -29 17 -8 11 -30 17 -61 19 -80 5
-226 24 -238 32 -6 3 -22 8 -36 10 -34 5 -39 12 -9 13 l24 1 -25 8 -25 7 25
11 25 11 -25 1 c-14 1 -66 2 -117 1 -83 -1 -97 1 -144 26 -28 16 -66 46 -84
68 -40 50 -96 155 -89 166 3 5 0 9 -5 9 -6 0 -11 4 -11 9 0 14 -72 121 -81
121 -5 0 -9 7 -9 15 0 8 -4 15 -8 15 -26 0 -142 195 -142 238 0 9 -3 28 -7 40
-4 18 -8 20 -14 10 -6 -10 -9 -8 -9 7 0 27 -32 115 -42 115 -4 0 -8 9 -8 19 0
10 -6 21 -14 24 -9 4 -17 26 -21 54 -6 45 -15 74 -36 116 -13 24 -57 165 -63
202 -3 17 -9 41 -12 55 -14 56 -16 118 -4 182 13 68 28 86 57 69 22 -12 55 -2
49 15 -4 9 2 14 18 14 12 0 26 3 30 7 11 11 79 34 118 39 l37 5 -5 -48 c-4
-37 -2 -45 7 -36 7 7 13 25 15 40 3 40 20 108 43 182 12 35 21 85 21 112 0 47
-8 62 -72 133 -10 11 -18 23 -18 27 0 10 -158 89 -177 89 -8 0 -39 11 -69 25
-30 14 -66 25 -79 25 -30 0 -30 1 -4 51 17 34 19 46 9 69 -6 15 -8 38 -5 53 4
16 1 34 -9 49 -14 22 -14 26 4 53 11 17 20 45 20 63 0 18 7 41 16 49 9 9 14
26 11 40 -6 32 18 97 50 138 15 19 52 46 83 62 30 15 66 35 80 44 14 9 74 42
134 73 60 31 114 64 121 73 11 14 18 13 76 -14 35 -17 66 -27 67 -22 11 28 82
-4 82 -37 0 -8 3 -14 8 -14 4 0 13 -14 21 -30 8 -19 27 -36 49 -46 20 -8 49
-31 65 -50 34 -41 85 -66 182 -89 39 -9 91 -30 118 -46 26 -16 50 -29 54 -29
3 0 13 -7 22 -15 65 -63 117 -105 129 -105 8 0 28 -11 46 -25 35 -28 33 -27
101 -75 27 -19 56 -40 65 -48 70 -60 131 -107 160 -123 51 -27 62 -38 100 -99
19 -30 52 -74 73 -98 20 -24 37 -49 37 -56 0 -7 8 -24 18 -37 20 -25 42 -101
42 -143 0 -17 10 -31 36 -46 35 -22 36 -22 53 -3 20 21 43 83 39 104 -2 10 8
14 32 14 23 0 34 4 32 13 -1 7 10 17 25 23 15 6 31 15 34 21 13 20 54 -1 79
-42 27 -43 47 -49 83 -25 21 14 25 13 54 -14 17 -15 38 -31 47 -34 9 -4 16
-11 16 -17 0 -6 4 -8 10 -5 15 9 -1 65 -32 111 -21 31 -41 47 -76 60 -79 29
-88 47 -31 58 26 4 43 16 97 64 27 24 33 25 82 16 20 -4 36 -16 42 -30 6 -13
19 -24 30 -24 13 0 18 -8 20 -27 0 -16 2 -32 3 -38 2 -5 3 -16 4 -23 0 -7 6
-10 12 -7 6 4 8 13 5 20 -2 7 4 35 14 62 l19 48 1 -57 c0 -31 -4 -67 -9 -81
-5 -13 -12 -50 -15 -83 -4 -32 -15 -86 -26 -119 -10 -33 -25 -81 -33 -107 -20
-66 -90 -184 -145 -244 -40 -43 -45 -53 -34 -64 10 -9 12 -26 8 -61 -4 -29 -2
-50 4 -54 15 -9 12 -52 -5 -85 -9 -18 -26 -31 -45 -35 -38 -8 -40 -35 -2 -35
21 0 24 -2 12 -10 -26 -17 -56 -11 -83 18 -26 27 -28 59 -5 88 5 7 2 16 -7 24
-8 7 -12 16 -9 21 3 5 0 9 -6 9 -6 0 -8 5 -5 10 11 17 35 12 28 -7 -5 -11 -3
-14 6 -8 19 11 32 -15 19 -38 -13 -24 10 -51 35 -41 19 7 23 34 6 34 -5 0 -8
4 -5 8 2 4 1 14 -4 22 -5 7 -3 24 3 38 9 20 8 26 -6 33 -9 6 -17 20 -17 32 0
19 -5 22 -40 22 -29 0 -46 7 -68 28 -15 15 -36 27 -46 27 -25 0 -45 -28 -46
-62 0 -15 -6 -47 -14 -70 -8 -24 -17 -65 -21 -92 -5 -43 -16 -67 -70 -166 -7
-14 -28 -56 -46 -95 -18 -38 -37 -75 -43 -81 -15 -16 -46 -57 -103 -134 -26
-36 -51 -66 -55 -68 -5 -2 -8 -10 -8 -18 0 -8 -4 -14 -8 -14 -4 0 -15 -12 -24
-27 -29 -49 -181 -193 -203 -193 -3 0 -11 -4 -18 -10 -57 -46 -76 -60 -86 -60
-5 0 -26 -13 -44 -30 -19 -16 -44 -30 -55 -30 -11 0 -22 -6 -24 -12 -3 -8 -18
-12 -39 -10 -19 1 -40 -2 -48 -7 -20 -13 23 -53 53 -49 12 1 34 -7 50 -19 27
-21 27 -22 7 -33 -12 -6 -21 -17 -21 -25 0 -8 -7 -15 -15 -15 -19 0 -19 -11 0
-36 16 -22 20 -74 5 -74 -5 0 -10 -7 -10 -15 0 -19 23 -18 75 0 22 8 52 15 68
15 15 0 27 4 27 10 0 5 19 15 43 22 23 7 47 16 52 20 6 4 29 23 53 43 24 19
60 37 80 40 58 10 82 22 76 40 -4 9 -1 15 9 15 8 0 31 11 51 25 21 14 42 23
47 20 5 -4 22 1 38 11 18 11 38 14 55 10 26 -6 26 -7 26 -104 1 -95 11 -132
38 -132 12 0 42 -50 42 -69 0 -6 8 -20 17 -31 19 -22 29 -70 14 -70 -5 0 -2
-14 6 -32 22 -44 23 -126 1 -163 -21 -36 -23 -123 -4 -176 7 -19 10 -52 8 -72
-2 -22 1 -44 8 -53 10 -11 10 -18 2 -26 -16 -16 -15 -63 1 -76 6 -6 36 -9 65
-7 38 3 52 0 52 -9 0 -8 7 -19 15 -26 29 -24 17 -159 -21 -247 -17 -37 -19
-66 -4 -43 9 13 10 13 10 0 0 -11 4 -10 12 4 9 17 14 11 34 -44 27 -72 30 -96
10 -103 -33 -13 -25 -127 10 -127 32 0 19 -64 -24 -112 -13 -16 -13 -18 0 -18
11 0 15 -14 16 -55 1 -44 8 -65 29 -95 15 -22 37 -43 48 -46 11 -4 26 -15 33
-25 7 -11 24 -19 37 -19 15 0 26 -7 30 -20 3 -11 13 -20 21 -20 8 0 20 -11 26
-25 6 -14 15 -25 21 -25 21 0 66 -56 72 -91 l6 -36 72 5 c40 2 73 6 75 7 1 1
8 31 14 66 11 65 29 92 53 83 17 -7 55 13 55 29 0 7 13 28 28 47 31 37 34 76
13 134 -10 24 -6 38 30 109 22 45 47 87 55 93 8 6 14 15 14 19 0 4 10 17 23
29 24 22 93 43 186 56 255 37 285 44 376 95 71 40 115 78 115 98 0 17 123 57
152 50 18 -4 20 -2 8 6 -8 5 -12 11 -10 13 3 2 19 13 37 26 18 12 37 22 42 22
15 0 53 58 46 70 -3 5 -1 27 5 47 18 58 28 113 21 113 -3 -1 -17 -24 -31 -52
-14 -29 -40 -63 -57 -76 l-33 -25 6 49 6 49 -55 -57 c-57 -61 -77 -71 -77 -38
0 25 -5 25 -41 -1 -16 -11 -29 -17 -29 -13 0 3 -7 1 -15 -6 -9 -7 -29 -14 -45
-15 -72 -4 -80 -6 -80 -16 0 -8 12 -10 35 -6 22 4 35 2 35 -5 0 -13 -153 -2
-181 13 -27 14 -24 32 4 26 12 -3 33 -8 47 -11 l25 -7 -25 13 c-35 17 -36 18
-20 28 13 8 12 10 -2 10 -9 0 -20 5 -24 11 -5 8 3 10 27 7 41 -6 68 5 92 38
18 24 18 24 -7 24 -14 0 -28 -5 -31 -10 -14 -23 -81 -10 -139 26 l-58 37 40
36 c66 60 87 114 95 246 5 69 5 69 59 118 29 27 69 65 88 83 39 37 50 42 50
19 0 -8 6 -15 13 -15 9 0 9 -2 0 -8 -8 -5 -4 -20 14 -50 26 -43 72 -72 138
-86 39 -8 129 9 180 35 56 29 143 122 171 184 45 98 43 356 -3 407 -9 10 -13
26 -10 37 3 12 0 19 -6 18 -14 -3 -40 47 -27 51 39 14 -43 95 -116 117 -29 8
-55 22 -58 31 -5 13 -1 15 18 10 20 -5 26 -1 35 26 14 41 15 40 -11 33 -18 -5
-20 -4 -8 4 13 10 13 12 0 22 -12 9 -11 10 8 6 22 -5 49 23 35 37 -3 3 -2 6 4
6 17 0 11 62 -8 81 -35 35 -348 111 -373 90 -7 -6 -17 -6 -26 -1 -12 8 -12 10
3 10 10 0 15 5 12 10 -3 6 -14 10 -24 10 -18 0 -102 75 -99 88 1 4 -6 31 -16
60 -12 35 -16 66 -12 90 5 26 4 33 -3 22 -15 -22 -20 0 -26 100 -3 47 -7 96
-9 110 -2 14 -4 35 -5 46 -1 14 -7 21 -18 20 -12 0 -19 7 -21 22 -4 26 5 28
34 7 24 -16 34 -11 34 19 1 15 6 10 19 -18 10 -22 17 -55 16 -75 -1 -20 -1
-28 2 -18 2 9 10 17 17 17 10 0 12 12 8 48 -3 26 -9 50 -14 53 -5 3 -8 17 -7
30 4 41 -1 59 -13 54 -7 -3 -21 11 -31 32 -21 41 -13 53 36 53 27 0 36 13 17
25 -8 5 -8 11 0 20 8 10 7 15 -8 19 -13 5 -18 13 -15 29 5 26 -28 47 -72 47
-13 0 -27 5 -30 11 -12 18 3 22 34 9 40 -16 65 -7 26 11 -16 7 -38 21 -48 32
-11 10 -29 17 -42 15 -34 -4 -79 53 -70 90 4 15 12 30 18 34 7 4 -3 20 -27 43
-29 27 -36 39 -27 48 6 6 11 20 11 32 1 19 1 19 15 1 13 -17 14 -15 13 15 -1
21 -10 41 -26 56 -18 17 -23 30 -20 52 3 18 0 28 -6 24 -5 -4 -7 1 -3 11 4 10
7 22 7 28 0 6 6 6 15 -2 20 -17 19 -1 -2 22 -9 10 -16 33 -15 51 0 34 -9 66
-40 137 -11 24 -24 55 -29 67 -5 13 -13 23 -19 23 -5 0 -10 8 -10 18 0 11 -9
27 -20 37 -11 10 -20 23 -20 29 0 6 -10 16 -22 21 -12 6 -29 24 -37 42 -9 18
-26 38 -39 44 -13 7 -34 36 -48 63 -14 28 -34 60 -45 72 -10 11 -19 24 -19 29
0 5 -15 22 -33 39 -19 17 -39 41 -46 54 -10 19 -9 22 5 22 13 0 14 3 4 15 -7
8 -18 15 -24 15 -6 0 -22 14 -36 31 -14 17 -35 40 -47 52 -13 11 -23 27 -23
34 0 8 -20 35 -45 61 -25 26 -45 52 -45 58 0 7 -14 27 -31 45 -17 18 -69 84
-115 145 -46 61 -103 128 -126 149 -24 21 -83 75 -131 119 -49 45 -111 93
-138 108 -28 15 -65 39 -82 53 -84 68 -185 128 -306 181 -36 16 -242 64 -301
71 -87 9 -249 11 -290 3z m207 -36 c-3 -3 -12 -4 -19 -1 -8 3 -5 6 6 6 11 1
17 -2 13 -5z m-183 -226 c-3 -4 -9 -8 -15 -8 -5 0 -9 4 -9 8 0 5 7 9 15 9 8 0
12 -4 9 -9z m-439 -249 c-8 -12 -35 -12 -35 0 0 11 22 20 33 14 4 -2 5 -9 2
-14z m-79 -46 c-1 -10 -12 -22 -24 -28 -24 -11 -29 -31 -10 -37 11 -4 8 -18
-12 -48 -35 -53 -70 -124 -70 -141 0 -28 -18 -59 -35 -59 -10 0 -12 11 -10 43
2 23 -2 48 -7 55 -8 9 -6 12 7 12 11 0 15 5 11 15 -3 8 -1 15 4 15 5 0 12 20
15 44 5 32 16 52 39 73 24 22 81 66 93 72 1 1 0 -7 -1 -16z m2514 -1124 c12
-23 19 -43 17 -46 -3 -2 -11 10 -18 26 -8 17 -17 31 -21 31 -5 0 -8 7 -8 15 0
25 8 17 30 -26z m-3178 -394 c15 -6 14 -10 -9 -35 -25 -29 -76 -53 -87 -43
-11 12 -6 59 9 80 15 22 30 21 87 -2z m286 -275 c-21 -33 -38 -25 -27 12 5 18
9 34 9 36 0 2 7 -3 15 -12 13 -13 13 -19 3 -36z m3141 -59 c-6 -2 -15 3 -20
10 -15 24 -10 29 11 11 12 -10 16 -18 9 -21z m-3164 19 c-3 -5 -10 -10 -16
-10 -5 0 -9 5 -9 10 0 6 7 10 16 10 8 0 12 -4 9 -10z m3290 -130 c8 -13 -15
-13 -35 0 -12 8 -11 10 7 10 12 0 25 -4 28 -10z m72 -795 c8 -19 8 -25 -1 -25
-18 0 -35 21 -29 36 8 20 17 17 30 -11z m-3972 -45 c-28 -12 -37 -12 -30 0 3
6 16 10 28 9 21 0 21 -1 2 -9z m265 -19 c0 -11 4 -22 9 -25 5 -3 9 -17 9 -30
0 -23 -5 -25 -58 -28 -76 -4 -94 -1 -77 16 18 19 40 24 58 15 18 -9 59 -1 59
12 0 5 -11 9 -25 9 -26 0 -26 0 -8 25 22 30 33 32 33 6z m3764 -13 c22 -6 47
-16 54 -21 7 -5 15 -7 19 -3 3 3 1 6 -5 6 -7 0 -12 4 -12 9 0 4 10 8 23 7 12
-1 21 -6 20 -11 -1 -6 19 -11 44 -12 45 -2 69 -12 46 -20 -34 -12 50 -53 109
-53 36 0 36 -20 1 -21 -16 -1 -32 0 -38 1 -23 5 -31 7 -45 13 -8 3 -40 8 -70
11 -100 9 -189 30 -207 51 -16 16 -16 17 -1 6 9 -7 22 -10 28 -6 14 9 5 19
-35 39 l-30 16 29 0 c16 0 47 -5 70 -12z m-3864 -4 c0 -13 -55 -54 -72 -54
-30 0 -20 30 15 45 35 15 57 19 57 9z m4223 -38 c9 -7 17 -18 17 -25 0 -13
-54 11 -65 29 -9 15 27 12 48 -4z m-86 -22 c-3 -3 -12 -4 -19 -1 -8 3 -5 6 6
6 11 1 17 -2 13 -5z m-95 -58 c30 -2 65 -15 93 -32 43 -28 56 -44 35 -44 -5 0
-10 5 -10 11 0 7 -13 9 -37 5 -62 -11 -81 -9 -99 9 -9 9 -20 12 -23 7 -4 -5
-20 -3 -41 5 l-35 13 32 -5 c25 -3 31 -1 26 10 -3 9 -18 15 -34 15 -16 0 -29
5 -29 10 0 6 16 8 38 5 20 -3 58 -7 84 -9z m141 -23 c-7 -2 -19 -2 -25 0 -7 3
-2 5 12 5 14 0 19 -2 13 -5z m-27 -58 c4 -8 10 -13 15 -10 4 3 23 -1 41 -9
l33 -14 -42 -1 c-49 -1 -120 33 -87 42 32 8 34 7 40 -8z m-4423 -2 c-7 -2 -19
-2 -25 0 -7 3 -2 5 12 5 14 0 19 -2 13 -5z m-41 -29 c17 -9 39 -13 50 -11 15
4 19 2 15 -12 -3 -14 0 -17 16 -13 12 3 18 1 14 -5 -4 -6 -18 -14 -31 -17 -20
-5 -33 2 -66 34 -45 44 -44 48 2 24z m4678 -269 c0 -8 -2 -15 -4 -15 -2 0 -6
7 -10 15 -3 8 -1 15 4 15 6 0 10 -7 10 -15z m31 -51 c5 -15 8 -29 5 -31 -2 -2
-8 10 -14 26 -13 38 -5 41 9 5z m-4375 -44 c42 -15 78 -74 70 -118 -7 -47 -12
-49 -49 -26 -25 15 -48 19 -106 17 l-73 -1 5 41 c10 76 77 114 153 87z m4016
-82 c-6 -6 -16 -7 -22 -3 -9 6 -9 9 1 16 17 10 34 0 21 -13z m-142 -8 c0 -5
-4 -10 -10 -10 -5 0 -10 5 -10 10 0 6 5 10 10 10 6 0 10 -4 10 -10z m160 -25
c-5 -12 -6 -25 -3 -28 8 -9 -219 -224 -248 -235 -23 -9 -5 19 29 44 46 35 62
50 62 60 0 5 -5 3 -12 -4 -7 -7 -18 -12 -26 -12 -27 0 8 29 47 40 40 11 104
70 76 70 -12 0 -11 6 7 31 16 23 19 33 10 36 -21 8 -5 18 32 20 33 1 34 0 26
-22z m100 -24 c0 -5 -7 -14 -15 -21 -12 -10 -15 -10 -15 2 0 8 3 18 7 21 9 10
23 9 23 -2z m89 -50 c58 -136 0 -239 -136 -240 -49 -1 -55 -12 -15 -29 24 -9
21 -10 -23 -5 -59 7 -129 56 -140 100 -6 27 10 50 58 80 6 4 25 26 42 48 53
72 62 80 79 65 14 -11 12 -17 -14 -56 -17 -24 -38 -48 -48 -53 -13 -7 -14 -13
-6 -21 9 -9 19 -7 40 6 36 23 46 35 85 102 17 28 36 52 44 52 7 0 22 -22 34
-49z m-612 -533 c-3 -8 -6 -5 -6 6 -1 11 2 17 5 13 3 -3 4 -12 1 -19z m-54
-13 c4 -8 2 -17 -3 -20 -6 -4 -10 3 -10 14 0 25 6 27 13 6z m-3790 -97 c-12
-56 -35 -118 -44 -118 -11 0 -3 39 19 97 18 46 33 58 25 21z m3852 -148 c3 -5
-1 -10 -9 -10 -8 0 -18 5 -21 10 -3 6 1 10 9 10 8 0 18 -4 21 -10z m18 -219
c40 -22 89 -42 110 -46 53 -10 46 -26 -17 -40 -6 -1 -18 -5 -26 -8 -21 -8
-142 -16 -157 -10 -20 7 8 43 34 43 13 0 23 5 23 10 0 6 -4 10 -8 10 -7 0 -42
63 -42 75 0 10 13 4 83 -34z m-2623 -11 c0 -5 -4 -10 -10 -10 -5 0 -10 5 -10
10 0 6 5 10 10 10 6 0 10 -4 10 -10z m2810 -20 c0 -12 -24 -12 -60 0 -21 7
-19 8 18 9 23 1 42 -3 42 -9z m-3982 -53 c5 -24 -15 -21 -21 4 -3 13 -1 19 6
16 7 -2 13 -11 15 -20z"/>
<path d="M2675 7169 c-10 -15 3 -25 16 -12 7 7 7 13 1 17 -6 3 -14 1 -17 -5z"/>
<path d="M3725 6840 c-3 -6 1 -7 9 -4 18 7 21 14 7 14 -6 0 -13 -4 -16 -10z"/>
<path d="M3860 6390 c-129 -31 -222 -71 -271 -116 -14 -13 -32 -24 -40 -24
-48 0 -83 -106 -47 -142 17 -17 29 -20 68 -15 l47 6 23 -95 c21 -85 26 -95 49
-101 35 -8 107 -82 87 -89 -12 -5 -12 -9 1 -35 8 -16 24 -35 35 -43 19 -13 22
-13 37 5 11 13 38 23 81 30 36 6 69 14 75 20 5 5 18 9 30 9 11 0 29 13 40 30
11 16 26 30 33 30 6 0 12 9 12 19 0 17 -4 18 -32 10 -17 -5 -34 -6 -37 -4 -2
3 0 5 6 5 6 0 18 16 28 36 20 43 41 53 59 28 13 -17 15 -17 41 0 17 11 36 15
51 12 13 -4 45 -1 70 5 39 10 43 13 28 22 -11 5 -32 22 -49 37 -16 15 -48 37
-70 50 -22 13 -42 27 -45 31 -8 11 -126 58 -183 73 -35 9 -69 11 -107 5 -76
-11 -122 -11 -116 0 4 5 -3 7 -14 4 -25 -7 -26 8 -2 35 23 27 244 102 250 84
2 -7 24 -12 55 -13 29 0 85 -6 125 -13 41 -7 75 -9 78 -4 12 20 -230 105 -321
113 -22 2 -56 0 -75 -5z m258 -310 c13 -9 2 -10 -44 -6 -33 3 -69 9 -79 12
-18 7 -18 8 0 14 22 8 99 -5 123 -20z m-177 -211 c12 -6 40 -9 62 -6 27 4 36
3 26 -4 -7 -5 -44 -8 -81 -6 -59 2 -68 5 -78 25 -5 13 -10 37 -10 54 l0 31 30
-41 c16 -23 39 -46 51 -53z"/>
<path d="M6459 5982 c12 -23 41 -48 41 -35 0 10 -37 53 -46 53 -2 0 0 -8 5
-18z"/>
<path d="M5620 5846 c0 -20 2 -36 4 -36 8 0 12 61 4 66 -4 3 -8 -11 -8 -30z"/>
<path d="M5611 5784 c0 -11 3 -14 6 -6 3 7 2 16 -1 19 -3 4 -6 -2 -5 -13z"/>
<path d="M5558 5692 c-20 -20 -46 -45 -57 -54 -12 -10 -18 -24 -15 -33 5 -12
12 -9 37 15 17 16 34 30 39 30 10 0 40 59 36 70 -2 5 -19 -8 -40 -28z"/>
<path d="M6621 5686 c-11 -14 -12 -24 -4 -49 6 -18 11 -53 11 -79 0 -41 -3
-48 -20 -48 -14 0 -18 -5 -14 -16 3 -9 6 -17 6 -19 0 -2 9 -1 20 2 17 5 20 0
20 -27 0 -21 4 -30 13 -27 8 2 12 27 11 76 l0 73 18 -34 19 -33 -5 34 c-4 18
-6 37 -6 40 0 4 -9 17 -20 29 -11 12 -24 38 -28 58 -7 33 -9 35 -21 20z"/>
<path d="M5460 5580 c0 -5 5 -10 10 -10 6 0 10 5 10 10 0 6 -4 10 -10 10 -5 0
-10 -4 -10 -10z"/>
<path d="M6570 5536 c0 -2 7 -7 16 -10 8 -3 12 -2 9 4 -6 10 -25 14 -25 6z"/>
<path d="M6700 5446 c0 -8 5 -18 10 -21 6 -3 10 1 10 9 0 8 -4 18 -10 21 -5 3
-10 -1 -10 -9z"/>
<path d="M3744 5204 c-16 -11 -27 -12 -53 -3 -17 6 -61 9 -96 7 -54 -3 -70 -9
-102 -35 -32 -26 -38 -37 -36 -65 l2 -33 -76 4 c-63 3 -75 1 -71 -11 4 -8 9
-45 13 -81 4 -37 10 -67 14 -66 3 0 40 22 81 48 57 37 75 54 75 71 1 37 59 78
124 85 71 9 135 38 149 70 13 28 7 31 -24 9z"/>
<path d="M2730 4950 c-12 -8 -10 -10 8 -10 13 0 20 4 17 10 -7 12 -6 12 -25 0z"/>
<path d="M3100 4940 c0 -5 5 -10 11 -10 5 0 7 5 4 10 -3 6 -8 10 -11 10 -2 0
-4 -4 -4 -10z"/>
<path d="M3285 4802 c0 -103 13 -146 55 -175 11 -7 21 -22 23 -33 2 -10 10
-32 16 -49 16 -36 19 -52 20 -87 1 -20 5 -25 20 -21 12 3 24 -3 33 -16 10 -15
21 -19 39 -15 13 3 30 6 37 6 6 1 12 7 12 14 0 18 23 23 83 17 57 -6 59 -4
105 51 18 22 15 26 -20 27 -33 0 -33 0 -10 16 52 36 11 44 -70 13 -64 -24 -81
-25 -99 -3 -8 9 -30 23 -49 31 -28 11 -31 16 -18 23 9 5 39 14 67 19 74 14
149 51 153 75 4 26 36 32 52 9 15 -20 38 -10 29 13 -5 13 -2 15 19 10 13 -4
40 -2 59 4 107 32 138 41 173 45 22 3 48 10 58 15 12 6 25 6 37 -1 58 -31 67
2 14 55 -35 35 -39 36 -87 30 -70 -9 -187 -9 -341 0 -118 6 -134 5 -174 -13
-33 -15 -51 -18 -75 -11 -41 12 -93 11 -101 -1 -3 -5 -13 -10 -22 -10 -12 0
-14 7 -9 30 4 24 2 30 -12 30 -15 0 -17 -12 -17 -98z m465 -11 c0 -17 -94 -45
-195 -58 l-40 -5 30 26 c32 28 50 32 60 16 4 -6 11 -8 16 -4 5 3 7 9 4 14 -3
5 16 8 41 8 25 0 48 3 52 6 9 9 32 7 32 -3z m-100 -117 c0 -2 -7 -4 -15 -4 -8
0 -15 4 -15 10 0 5 7 7 15 4 8 -4 15 -8 15 -10z"/>
<path d="M7105 4500 c-4 -6 -1 -10 5 -10 6 0 15 -11 22 -25 6 -13 14 -22 19
-20 9 6 -12 53 -28 59 -7 3 -15 1 -18 -4z"/>
<path d="M2658 4493 c7 -3 16 -2 19 1 4 3 -2 6 -13 5 -11 0 -14 -3 -6 -6z"/>
<path d="M4194 4166 c-33 -15 -47 -36 -35 -55 6 -9 11 -8 21 4 7 8 21 15 31
15 14 0 19 7 19 25 0 14 -1 25 -2 25 -2 -1 -17 -7 -34 -14z"/>
<path d="M4010 4060 c-24 -15 -7 -19 20 -5 15 8 19 14 10 14 -8 1 -22 -3 -30
-9z"/>
<path d="M4530 3745 c0 -8 5 -15 10 -15 6 0 10 7 10 15 0 8 -4 15 -10 15 -5 0
-10 -7 -10 -15z"/>
<path d="M5240 3170 c0 -5 5 -10 10 -10 6 0 10 5 10 10 0 6 -4 10 -10 10 -5 0
-10 -4 -10 -10z"/>
<path d="M5212 3144 c-7 -8 -8 -14 -3 -14 10 0 25 19 20 25 -2 1 -10 -3 -17
-11z"/>
<path d="M3685 2650 c3 -5 8 -10 11 -10 2 0 4 5 4 10 0 6 -5 10 -11 10 -5 0
-7 -4 -4 -10z"/>
<path d="M3717 2523 c-4 -3 -7 -11 -7 -17 0 -6 5 -5 12 2 6 6 9 14 7 17 -3 3
-9 2 -12 -2z"/>
<path d="M3625 2488 c-22 -12 -95 -83 -95 -93 0 -6 16 6 60 47 16 15 37 31 47
37 24 13 13 22 -12 9z"/>
<path d="M3905 20 l-80 -18 319 -1 c176 -1 317 2 313 5 -3 3 -41 12 -84 20
-113 20 -367 17 -468 -6z"/>
</g>
</svg>
