<svg width="40" height="80" viewBox="0 0 75 117" fill="none" xmlns="http://www.w3.org/2000/svg">
<path d="M33.4712 60.2175L33.0237 58.9406C43.9581 54.0664 46.7192 48.9282 44.1567 41.6152C40.8213 32.0967 30.8594 29.3314 28.5002 22.5988C27.0359 18.42 28.7007 15.3603 35.3172 13.0417C37.1745 12.3909 39.1885 11.8155 41.5508 11.1181L37.9654 0.514174C35.4871 1.25228 33.0841 1.83363 28.3249 3.50133C14.9757 8.17901 10.7699 15.5177 13.8553 23.9509C17.4755 34.282 29.254 36.2803 32.3453 45.1024C34.1757 50.3259 31.8958 53.8619 24.3506 56.5058L16.3411 59.3124L20.1239 70.1078L28.1334 67.3012C34.7499 64.9827 40.4041 65.8687 42.3565 71.4406C45.5292 80.4948 37.1098 89.5706 40.8113 100.134C43.7806 108.608 51.6472 111.716 64.9963 107.038C69.7556 105.371 71.8798 104.366 74.2768 103.396L70.616 92.9484C68.3351 93.878 66.2456 94.6101 64.5044 95.2202C57.8879 97.5388 54.5613 96.2281 53.097 92.0492C50.7785 85.4327 56.6034 77.1356 53.268 67.6171C50.7054 60.304 44.1743 58.031 33.4712 60.2175Z" fill="#FBBF31"/>
</svg>
