<svg width="270" height="238" viewBox="0 0 270 238" fill="none" xmlns="http://www.w3.org/2000/svg">
<path fillRule="evenodd" clipRule="evenodd" d="M107.202 235.207C89.3875 230.712 83.1182 208.159 67.7168 198.151C48.4599 185.637 18.5724 189.006 6.2826 169.626C-5.67087 150.776 2.89063 125.604 7.93853 103.883C12.9107 82.4882 21.6448 62.4087 35.216 45.1269C49.3903 27.0772 65.5366 8.45978 87.682 2.33673C109.599 -3.72319 133.298 2.90638 154.024 12.2771C172.549 20.6523 181.834 40.8049 198.501 52.4391C218.175 66.1728 248.497 65.8226 260.479 86.5885C272.346 107.154 272.053 137.002 258.56 156.522C244.598 176.72 212.67 172.016 192.118 185.481C178.386 194.478 173.797 213.043 159.629 221.339C146.183 238.443 125.04 239.707 107.202 235.207Z" fill="#03979C"/>
</svg>
