<svg width="210" height="192" viewBox="0 0 215 192" fill="none" xmlns="http://www.w3.org/2000/svg">
<path fill-rule="evenodd" clip-rule="evenodd" d="M112.275 0.0523291C127.394 0.662853 136.265 17.8855 150.374 23.3789C168.013 30.2474 191.533 22.424 204.719 36.0481C217.545 49.2994 214.906 71.1718 214.514 89.6472C214.128 107.846 210.488 125.618 202.475 141.945C194.106 158.998 184.243 176.847 167.431 185.585C150.791 194.233 130.568 192.893 112.275 188.824C95.9265 185.187 85.0307 170.425 69.6277 163.828C51.445 156.041 27.0646 161.49 13.8911 146.69C0.845024 132.033 -3.97193 107.776 3.59941 89.6472C11.4337 70.8887 37.9639 69.2653 52.2495 54.8443C61.7944 45.2088 62.351 29.3706 72.3659 20.2289C80.3081 4.06719 97.1355 -0.559021 112.275 0.0523291Z" fill="#FBBF31"/>
</svg>
