<svg width="68" height="67" viewBox="0 0 68 67" fill="none" xmlns="http://www.w3.org/2000/svg">
<path d="M39.9826 17.0404L39.5947 17.028C37.5634 17.0171 35.7228 17.8331 34.3962 19.158C33.721 18.4695 32.9159 17.9218 32.0275 17.5466C31.1391 17.1715 30.1851 16.9763 29.2207 16.9725L28.8348 16.9809C24.9788 17.1574 21.9404 20.4111 21.9191 24.3884C21.9055 26.9446 23.0192 29.3553 24.9772 31.0256L32.7994 39.1842C32.9917 39.3848 33.2224 39.5446 33.4777 39.6543C33.7331 39.764 34.0078 39.8213 34.2857 39.8228C34.5636 39.8243 34.8389 39.77 35.0954 39.663C35.3519 39.556 35.5843 39.3986 35.7788 39.2001L43.6856 31.1256C44.6581 30.3207 45.4424 29.3125 45.9834 28.1719C46.5243 27.0313 46.8087 25.786 46.8166 24.5236C46.8378 20.5442 43.8344 17.2581 39.9826 17.0384L39.9826 17.0404Z" fill="#00979D"/>
<path d="M34.4078 17.0002C37.8454 17.0186 40.6471 14.2467 40.6654 10.8091C40.6838 7.37147 37.912 4.56984 34.4744 4.55146C31.0367 4.53309 28.2351 7.30493 28.2167 10.7425C28.1984 14.1802 30.9702 16.9818 34.4078 17.0002Z" fill="#00979D"/>
<path d="M9.41129 35.5402L5.26172 35.5181L5.12863 60.4155L9.2782 60.4377C9.82847 60.4406 10.3574 60.2249 10.7485 59.8378C11.1397 59.4508 11.3611 58.9243 11.3641 58.374L11.475 37.6261C11.4779 37.0759 11.2622 36.547 10.8751 36.1558C10.4881 35.7646 9.96156 35.5432 9.41129 35.5402ZM60.9632 38.592C60.2373 38.1485 59.408 37.903 58.5577 37.8799C57.7074 37.8567 56.8659 38.0569 56.117 38.4602L42.4902 45.6909C42.3313 46.9428 41.7205 48.0936 40.7727 48.9268C39.8248 49.7601 38.6053 50.2184 37.3433 50.2156L29.0026 50.171C28.7275 50.1695 28.4642 50.0588 28.2707 49.8632C28.0772 49.6676 27.9693 49.4032 27.9708 49.128C27.9722 48.8529 28.0829 48.5896 28.2785 48.3961C28.4741 48.2026 28.7386 48.0947 29.0137 48.0962L37.3543 48.1408C39.0702 48.1499 40.474 46.7611 40.4832 45.0452C40.4852 44.2379 40.1734 43.4614 39.6136 42.8796C39.0538 42.2978 38.2898 41.9564 37.483 41.9273C36.8606 41.9177 26.8353 41.86 26.8353 41.86L23.3125 38.3015C22.9256 37.9103 22.3991 37.6888 21.8489 37.6857L13.5497 37.6414L13.4388 58.3892L17.1029 58.4088L23.8017 60.5153C26.5854 61.4265 29.5606 62.6209 32.8657 62.6386C35.8534 62.6546 38.8008 61.6806 41.3528 59.746L61.1809 46.7742C61.8349 46.3321 62.3714 45.7372 62.7439 45.0411C63.1164 44.345 63.3136 43.5686 63.3186 42.7791C63.3278 41.0509 62.4481 39.4859 60.9632 38.592Z" fill="#00979D"/>
</svg>
