<svg width="200" height="200" viewBox="0 0 225 157" fill="none" xmlns="http://www.w3.org/2000/svg">
<path fill-rule="evenodd" clip-rule="evenodd" d="M117.497 0.319365C133.32 0.816743 142.603 14.8476 157.368 19.3229C175.828 24.9185 200.441 18.545 214.241 29.6443C227.663 40.4397 224.901 58.2587 224.491 73.3101C224.088 88.1359 220.278 102.614 211.892 115.916C203.134 129.808 192.813 144.349 175.218 151.468C157.805 158.513 136.64 157.422 117.497 154.107C100.388 151.144 88.9856 139.117 72.8662 133.744C53.8378 127.4 28.3234 131.839 14.5372 119.782C0.884328 107.841 -4.15667 88.0793 3.76682 73.3101C11.9655 58.028 39.7296 56.7054 54.6797 44.957C64.6686 37.1072 65.251 24.2042 75.7317 16.7567C84.0433 3.59017 101.653 -0.178687 117.497 0.319365Z" fill="#03979C"/>
</svg>
