<svg width="208" height="187" viewBox="0 0 208 187" fill="none" xmlns="http://www.w3.org/2000/svg">
<path fill-rule="evenodd" clip-rule="evenodd" d="M108.442 4.04879C122.506 4.61797 130.759 20.6745 143.882 25.7959C160.291 32.1994 182.17 24.9057 194.436 37.6074C206.367 49.9614 203.912 70.3529 203.548 87.5773C203.189 104.544 199.803 121.112 192.349 136.334C184.564 152.232 175.389 168.873 159.749 177.019C144.271 185.081 125.458 183.832 108.442 180.039C93.2339 176.648 83.0983 162.885 68.77 156.736C51.8558 149.476 29.1763 154.556 16.9219 140.758C4.78607 127.094 0.305184 104.479 7.34829 87.5773C14.636 70.0889 39.3152 68.5754 52.6042 55.1308C61.4832 46.1478 62.0009 31.3819 71.3171 22.8592C78.7052 7.79181 94.3586 3.47883 108.442 4.04879Z" stroke="#03979C" stroke-width="7"/>
</svg>
