<svg width="364" height="323" viewBox="0 0 364 323" fill="none" xmlns="http://www.w3.org/2000/svg">
<path fillRule="evenodd" clipRule="evenodd" d="M190.084 0.0880328C215.682 1.11511 230.701 30.0886 254.586 39.3301C284.45 50.885 324.269 37.7238 346.594 60.6435C368.309 82.9359 363.84 119.732 363.177 150.813C362.524 181.428 356.361 211.326 342.795 238.793C328.626 267.48 311.928 297.508 283.464 312.208C255.293 326.756 221.054 324.502 190.084 317.656C162.406 311.538 143.959 286.704 117.881 275.607C87.0976 262.507 45.8209 271.674 23.5179 246.776C1.43065 222.119 -6.72456 181.311 6.09388 150.813C19.3575 119.255 64.2737 116.524 88.4596 92.264C104.619 76.0544 105.562 49.4099 122.517 34.0308C135.963 6.8422 164.453 -0.940436 190.084 0.0880328Z" fill="#FBBF31"/>
</svg>
