<svg width="71" height="72" viewBox="0 0 71 72" fill="none" xmlns="http://www.w3.org/2000/svg">
<path d="M25.4602 29.2191C25.7816 29.4176 26.1484 29.5308 26.5258 29.5479C26.9032 29.565 27.2787 29.4854 27.6168 29.3167L31.5861 27.3309L42.1562 27.3309C43.3331 27.3309 44.4618 26.8634 45.294 26.0312C46.1262 25.199 46.5937 24.0703 46.5937 22.8934L46.5937 14.0184C46.5937 12.8415 46.1262 11.7128 45.294 10.8806C44.4618 10.0485 43.3331 9.58093 42.1562 9.58093L28.8437 9.58093C27.6669 9.58093 26.5382 10.0485 25.706 10.8806C24.8738 11.7128 24.4063 12.8415 24.4063 14.0184L24.4063 27.3309C24.4063 27.7094 24.5031 28.0816 24.6876 28.4121C24.8721 28.7426 25.138 29.0204 25.4602 29.2191Z" fill="#FBBF31"/>
<path d="M19.9687 49.5184C24.8703 49.5184 28.8437 45.545 28.8437 40.6434C28.8437 35.7419 24.8703 31.7684 19.9687 31.7684C15.0672 31.7684 11.0938 35.7419 11.0938 40.6434C11.0938 45.545 15.0672 49.5184 19.9687 49.5184Z" fill="#FBBF31"/>
<path d="M30.3073 49.0303C29.0592 50.5692 27.4833 51.8101 25.6946 52.6624C23.9058 53.5148 21.9494 53.9571 19.968 53.9571C17.9865 53.9571 16.0301 53.5148 14.2414 52.6624C12.4526 51.8101 10.8767 50.5692 9.62858 49.0303C7.09699 51.2867 5.37462 54.3106 4.72514 57.639C4.60605 58.2612 4.62584 58.9021 4.78309 59.5157C4.94034 60.1294 5.23118 60.7008 5.63483 61.189C6.0553 61.7006 6.58357 62.1131 7.1819 62.3969C7.78023 62.6807 8.43385 62.8289 9.09608 62.8309L30.8398 62.8309C31.5021 62.8289 32.1557 62.6807 32.754 62.3969C33.3523 62.1131 33.8806 61.7006 34.3011 61.189C34.7058 60.7014 34.9973 60.1301 35.1546 59.5162C35.3119 58.9023 35.3311 58.2612 35.2108 57.639C34.5613 54.3106 32.8389 51.2867 30.3073 49.0303Z" fill="#FBBF31"/>
<path d="M51.0312 49.5184C55.9328 49.5184 59.9062 45.545 59.9062 40.6434C59.9062 35.7419 55.9328 31.7684 51.0312 31.7684C46.1297 31.7684 42.1563 35.7419 42.1563 40.6434C42.1563 45.545 46.1297 49.5184 51.0312 49.5184Z" fill="#FBBF31"/>
<path d="M66.2726 57.639C65.6231 54.3106 63.9007 51.2867 61.3691 49.0303C60.121 50.5692 58.5451 51.8101 56.7564 52.6624C54.9676 53.5148 53.0112 53.9571 51.0298 53.9571C49.0483 53.9571 47.0919 53.5148 45.3032 52.6624C43.5144 51.8101 41.9385 50.5692 40.6904 49.0303C38.1588 51.2867 36.4364 54.3106 35.787 57.639C35.6666 58.2612 35.6858 58.9023 35.8431 59.5162C36.0004 60.1301 36.2919 60.7014 36.6966 61.189C37.1171 61.7006 37.6454 62.1131 38.2437 62.3969C38.842 62.6807 39.4957 62.8289 40.1579 62.8309L61.9016 62.8309C62.5639 62.8289 63.2175 62.6807 63.8158 62.3969C64.4142 62.1131 64.9424 61.7006 65.3629 61.189C65.7665 60.7008 66.0574 60.1294 66.2146 59.5157C66.3719 58.9021 66.3917 58.2612 66.2726 57.639Z" fill="#FBBF31"/>
</svg>
