<svg width="68" height="67" viewBox="0 0 68 67" fill="none" xmlns="http://www.w3.org/2000/svg">
<path d="M39.9826 17.0408L39.5947 17.0284C37.5634 17.0175 35.7228 17.8335 34.3962 19.1584C33.721 18.4699 32.9159 17.9222 32.0275 17.547C31.1391 17.1718 30.1851 16.9767 29.2207 16.9729L28.8348 16.9812C24.9788 17.1577 21.9404 20.4114 21.9191 24.3888C21.9055 26.9449 23.0192 29.3556 24.9772 31.026L32.7994 39.1846C32.9917 39.3851 33.2224 39.545 33.4777 39.6547C33.7331 39.7644 34.0078 39.8217 34.2857 39.8232C34.5636 39.8247 34.8389 39.7703 35.0954 39.6634C35.3519 39.5564 35.5843 39.399 35.7788 39.2005L43.6856 31.126C44.6581 30.3211 45.4424 29.3129 45.9834 28.1723C46.5243 27.0316 46.8087 25.7863 46.8166 24.524C46.8378 20.5445 43.8344 17.2585 39.9826 17.0387L39.9826 17.0408Z" fill="#FBBF31"/>
<path d="M34.4078 17.0008C37.8454 17.0192 40.6471 14.2473 40.6654 10.8097C40.6838 7.37208 37.912 4.57045 34.4744 4.55207C31.0367 4.5337 28.2351 7.30554 28.2167 10.7432C28.1984 14.1808 30.9702 16.9824 34.4078 17.0008Z" fill="#FBBF31"/>
<path d="M9.41129 35.5407L5.26172 35.5186L5.12863 60.416L9.2782 60.4382C9.82847 60.4411 10.3574 60.2253 10.7485 59.8383C11.1397 59.4513 11.3611 58.9247 11.3641 58.3745L11.475 37.6266C11.4779 37.0763 11.2622 36.5474 10.8751 36.1563C10.4881 35.7651 9.96156 35.5437 9.41129 35.5407ZM60.9632 38.5925C60.2373 38.149 59.408 37.9035 58.5577 37.8803C57.7074 37.8572 56.8659 38.0573 56.117 38.4607L42.4902 45.6913C42.3313 46.9433 41.7205 48.0941 40.7727 48.9273C39.8248 49.7606 38.6053 50.2189 37.3433 50.216L29.0026 50.1715C28.7275 50.17 28.4642 50.0593 28.2707 49.8637C28.0772 49.6681 27.9693 49.4037 27.9708 49.1285C27.9722 48.8534 28.0829 48.5901 28.2785 48.3966C28.4741 48.2031 28.7386 48.0952 29.0137 48.0967L37.3543 48.1413C39.0702 48.1504 40.474 46.7616 40.4832 45.0457C40.4852 44.2384 40.1734 43.4618 39.6136 42.8801C39.0538 42.2983 38.2898 41.9569 37.483 41.9278C36.8606 41.9182 26.8353 41.8605 26.8353 41.8605L23.3125 38.302C22.9256 37.9108 22.3991 37.6893 21.8489 37.6862L13.5497 37.6419L13.4388 58.3897L17.1029 58.4093L23.8017 60.5158C26.5854 61.427 29.5606 62.6214 32.8657 62.6391C35.8534 62.6551 38.8008 61.6811 41.3528 59.7465L61.1809 46.7747C61.8349 46.3326 62.3714 45.7377 62.7439 45.0416C63.1164 44.3455 63.3136 43.5691 63.3186 42.7796C63.3278 41.0513 62.4481 39.4864 60.9632 38.5925Z" fill="#FBBF31"/>
</svg>
