<svg width="32" height="32" viewBox="0 0 32 32" fill="none" xmlns="http://www.w3.org/2000/svg">
<g clip-path="url(#clip0_1127_1227)">
<path d="M0 24C0 24.943 0.374602 25.8474 1.0414 26.5142C1.70819 27.181 2.61256 27.5556 3.55556 27.5556H28.4444C29.3874 27.5556 30.2918 27.181 30.9586 26.5142C31.6254 25.8474 32 24.943 32 24V20.4445H0V24Z" fill="#141414"/>
<path d="M0 11.5555H32V20.4444H0V11.5555Z" fill="#EEEEEE"/>
<path d="M28.4444 4.44446H3.55556C2.61256 4.44446 1.70819 4.81906 1.0414 5.48586C0.374602 6.15265 0 7.05702 0 8.00001L0 11.5556H32V8.00001C32 7.05702 31.6254 6.15265 30.9586 5.48586C30.2918 4.81906 29.3874 4.44446 28.4444 4.44446Z" fill="#DD2E44"/>
<path d="M9.97861 16.0533V17.1458H15.0017V16.4906C15.0017 16.1991 14.6737 16.2169 14.6737 16.4355V16.9262H10.7422V16.1617L13.4995 13.4044L13.9182 13.8498L11.4159 16.3795H14.0186C14.0186 16.3795 14.1368 15.6151 14.8462 15.6151L15.6568 16.1795V18.2364H8.34127C8.34127 18.2364 8.15905 19.2009 7.04883 19.0729C7.04883 19.0729 7.81327 18.5635 7.81327 17.9626C7.81327 17.3626 7.32261 16.8889 7.32261 16.8889L8.01416 16.4524C8.01416 16.4524 8.08705 16.8258 8.15994 16.9342C8.23372 17.0426 8.50572 17.1431 8.50572 17.1431H9.43372L9.42127 16.6578L9.28705 16.6L9.97861 16.0533ZM17.3582 16.944L17.2106 17.1458H16.7777C16.7795 16.1226 16.783 14.1075 16.7768 14.0871C16.7679 14.0595 16.9679 13.9146 16.9679 13.9146L16.095 13.4329V18.2382H17.7333L17.3582 16.944ZM22.2097 14.1973V17.1458H21.7733V14.5244L21.2266 15.0711V17.1466H20.7902V15.3991L20.2453 15.9457V15.9511L20.1262 16.064L20.2453 16.1102V16.5164C19.7244 16.2489 19.1528 16.6542 19.1528 17.1475V18.2391H22.7555V13.6533L22.2097 14.1973ZM19.9306 17.1458H19.8986C19.6799 17.1458 19.7075 16.8542 20.0079 16.8542C20.175 16.8542 20.2284 16.944 20.2453 17.024V17.1458H19.9306ZM21.0995 13.4053C21.0995 13.5404 21.0542 13.6515 20.9991 13.6515C20.9439 13.6515 20.8995 13.5413 20.8995 13.4053C20.8995 13.2693 20.9448 13.16 20.9991 13.16C21.055 13.16 21.0995 13.2693 21.0995 13.4053ZM20.1804 14.0693C20.1804 14.0693 20.3439 14.2249 20.6453 14.1786C20.9457 14.1333 21.0453 13.8604 21.0453 13.8604C21.0453 13.8604 21.2177 14.1422 21.4088 14.0969C21.6008 14.0515 21.7733 13.7511 21.7733 13.7511C21.7733 13.7511 21.7822 14.2329 21.4995 14.2782C21.2177 14.3235 21.0995 14.1235 21.0995 14.1235C21.0995 14.1235 20.9537 14.3422 20.6808 14.36C20.4079 14.3795 20.1804 14.0693 20.1804 14.0693ZM24.5751 16.9182L24.3395 17.1458H23.9573V14.0426L24.1839 13.9422L23.3022 13.4329V18.2382H24.9484L24.5751 16.9182Z" fill="#007A3C"/>
<path d="M9.52503 18.784C9.52695 18.8163 9.52223 18.8487 9.51117 18.8792C9.5001 18.9096 9.48292 18.9374 9.46068 18.961C9.43845 18.9845 9.41163 19.0033 9.38187 19.0161C9.35212 19.0289 9.32006 19.0355 9.28767 19.0354C9.25528 19.0353 9.22325 19.0286 9.19354 19.0157C9.16383 19.0028 9.13708 18.984 9.11494 18.9603C9.09279 18.9367 9.07571 18.9088 9.06476 18.8783C9.05381 18.8478 9.04921 18.8154 9.05125 18.7831C9.05506 18.7228 9.08173 18.6662 9.12583 18.6249C9.16993 18.5836 9.22813 18.5606 9.28856 18.5607C9.34899 18.5608 9.40711 18.584 9.45105 18.6255C9.49499 18.667 9.52145 18.7237 9.52503 18.784Z" fill="#007A3C"/>
</g>
<defs>
<clipPath id="clip0_1127_1227">
<rect width="32" height="32" fill="white"/>
</clipPath>
</defs>
</svg>
