<svg width="28" height="12" viewBox="0 0 28 12" fill="none" xmlns="http://www.w3.org/2000/svg">
<path d="M2 3H26C26.3978 3 26.7794 2.84196 27.0607 2.56066C27.342 2.27936 27.5 1.89782 27.5 1.5C27.5 1.10218 27.342 0.720644 27.0607 0.43934C26.7794 0.158035 26.3978 0 26 0H2C1.60217 0 1.22065 0.158035 0.939341 0.43934C0.658035 0.720644 0.5 1.10218 0.5 1.5C0.5 1.89782 0.658035 2.27936 0.939341 2.56066C1.22065 2.84196 1.60217 3 2 3ZM12 12H26C26.3978 12 26.7794 11.842 27.0607 11.5607C27.342 11.2794 27.5 10.8978 27.5 10.5C27.5 10.1022 27.342 9.72064 27.0607 9.43934C26.7794 9.15804 26.3978 9 26 9H12C11.6022 9 11.2206 9.15804 10.9393 9.43934C10.658 9.72064 10.5 10.1022 10.5 10.5C10.5 10.8978 10.658 11.2794 10.9393 11.5607C11.2206 11.842 11.6022 12 12 12Z" fill="#333333"/>
</svg>
