<?xml version="1.0" encoding="UTF-8"?>
<svg xmlns="http://www.w3.org/2000/svg" version="1.1" viewBox="0 0 806.7 362.3">
  <defs>
    <style>
      .cls-1 {
        fill: #ffffff;
      }

      .cls-2 {
        fill: #ffffff;
      }
    </style>
  </defs>
  <!-- Generator: Adobe Illustrator 28.7.1, SVG Export Plug-In . SVG Version: 1.2.0 Build 142)  -->
  <g>
    <g id="Layer_1">
      <path class="cls-2" d="M806.2,179.3c-.2,33-7.8,62.5-23.1,90-2,3.7-3.3,4.4-6.6,1-12.6-13.3-25.4-26.4-38.3-39.4-2.4-2.4-3-4.4-1.8-7.8,30.4-81.3-31.7-165.7-118.4-160.8-59.3,3.3-108.2,52.8-110.8,112.1-2.7,61.8,40.5,115.1,100.4,123.9,20.4,3,40.2,1.2,59.5-6.2,3.4-1.3,5.4-.5,7.8,1.8,13.3,12.6,26.8,25,40.2,37.5q4.3,4-1,7c-104.6,59.7-239.3-.6-264.7-118.4C426.9,115.3,497.5,15.2,603.6,1.5c97.6-12.6,188.9,58.2,201,156,1,7.8,1.4,15.6,1.6,21.9Z"/>
      <path class="cls-2" d="M806.7,334.6c-.4,9.5-5.7,18.8-16.7,24.3-11.1,5.5-22,4.4-32.1-2.9-1.6-1.2-3.1-2.6-4.5-4-31-31-61.9-61.9-92.8-93-12.4-12.5-13.1-30.9-1.7-43.2,11.9-12.8,31.5-13.2,44.2-.7,13.5,13.3,26.9,26.8,40.3,40.3,17.9,17.9,35.7,35.8,53.7,53.7,6.3,6.3,9.8,13.8,9.6,25.5Z"/>
      <path class="cls-1" d="M377.4,300.1c-11.3,0-22.7-.3-34,.1-5,.2-6.1-1.6-6-6.2.3-9.1.1-18.3,0-27.5,0-6.3-3.7-10.1-10.1-10.6q-10.7-.8-10.7,9.8c0,10.2,0,20.3,0,30.5,0,2.3,0,4.2-3.1,4.7-15.5,2.6-31.1,4-46.7.3-25.7-6-42-27-41.8-53.3,0-3.8,1.4-5.6,5.3-5.5,1.7,0,3.3,0,5,0,3.9-.2,5.6,1.4,6,5.5,2.6,30.2,25.9,47.3,56.1,41.6,3.3-.6,3.4-2.5,3.3-4.9,0-12.7.1-25.3,0-38,0-4,.9-5.7,5.2-5.4,6.6.3,13.3,0,20,.1,15.9.2,27.3,10.5,26.1,26.2-.4,5.6,0,11.3-.1,17,0,3,1.1,4.1,4.1,4.1,13.7,0,27.3-.1,41,0,3.7,0,4.6-1.3,4.1-4.7-2-13.6-10-22.5-22-28.2-3.8-1.8-7.7-3.1-11.8-4-1.9-.4-4.4-.3-4-3.3.4-2.9-1.6-6.4,2.2-8.5,15.4-8.6,30.8-17.4,46.2-25.9,3.2-1.8,6.9-2.2,9.3,1.6,2.1,3.3.6,7-3.7,9.3-8.9,4.8-17.9,9.6-26.9,14.4-1.4.8-3.3,1.2-3.2,3.4,0,2.3,2,2.4,3.5,3,19.9,8.6,31.1,30.3,26.9,51.7-.6,3.3-2.6,2.9-4.7,2.9-11.8,0-23.7,0-35.5,0Z"/>
      <path class="cls-2" d="M104,188.7c-6.2,0-12.3,0-18.4,0-1.9,0-2.9-1.5-4-2.8-4.6-5-9.3-10-13.7-15.2-2-2.3-3.9-2.8-6.9-2.1-27.8,6-54.3-11.3-59.9-39.2-5.6-27.5,12-54.2,39.3-59.8,21.4-4.4,43.4,6.2,53.7,25.9,10.7,20.3,6.6,45.3-10.4,60.9-3.9,3.5-3.8,5.3-.3,8.7,6.2,6.1,11.9,12.6,17.7,19,1.1,1.2,2.6,2.1,2.9,4.6ZM19.5,118.3c0,9.2,2.4,17,7.8,23.8,11.5,14.5,31.7,15.1,44,1.5,11.4-12.6,12.1-33.2,1.6-46.6-12.2-15.5-33.3-15.7-45.6-.4-5.2,6.5-7.6,14-7.8,21.6Z"/>
      <path class="cls-2" d="M625.7,218.4c-20.8,0-37.5-16.6-37.5-37.5,0-21,16.8-37.8,37.8-37.7,20.6,0,37.4,17.1,37.3,37.8,0,20.7-16.8,37.4-37.6,37.4Z"/>
      <path class="cls-1" d="M148.4,300.3c-13.2,0-26.3-.1-39.5,0-3.6,0-5-.8-4.9-4.7.2-21.3.2-42.6,0-63.9,0-3.9,1.4-5.1,4.9-4.6.5,0,1,0,1.5,0,4.9-.8,6.6.9,6.5,6.2-.4,15.8-.1,31.6-.1,47.4q0,6.8,6.8,6.8c16.3,0,32.6,0,49,0,3.9,0,5.2-1.1,5.1-5.1-.4-10.8-5-19.1-14-25.1-5.9-3.9-12.5-6.1-19.4-7.5-1.9-.4-5,.2-4.7-3.1.3-3.2-2-7.3,2.1-9.5,15.8-8.6,31.7-17.1,47.6-25.5,3.9-2.1,6.7-.2,8.5,3.5,1.8,3.6,1,6.6-2.6,8.4-9.3,4.8-18.7,9.5-28,14.4-1.5.8-3.8,1.1-3.7,3.5.1,2.7,2.5,2.2,4.1,2.7,10,2.8,16.7,9.3,21,18.5,5.2,11.1,4.8,23,4.6,34.8,0,3.2-2.4,2.6-4.3,2.6-13.5,0-27,0-40.5,0Z"/>
      <path class="cls-2" d="M193.2,173.2c-17.4-.6-32.5-9.7-41.7-27.4-10-19.2-8.9-38.4,3-56.4,15.8-23.9,48.5-29.6,70.3-12.7,4,3.1,4.8,6.8,2.3,10.3-2.8,3.9-6.8,5-10.8,2-22.3-16.7-54.6-2-56.6,30-1.5,22.6,15.8,41.5,36.9,41.1,7.6-.2,14.3-2.8,20.3-7.3,4.5-3.4,8.4-3.2,10.9.3,2.5,3.5,1.5,7.3-2.9,10.6-8.6,6.3-18.2,9.5-31.6,9.6Z"/>
      <path class="cls-2" d="M404.8,103.4c0-11.2.3-21.4-.1-31.5-.2-4.9,2-5.4,5.9-5.3,3.5.1,6.1-.2,6.1,5-.3,31.8-.1,63.6-.2,95.4,0,1.9,1,5.2-2.4,4.8-3.1-.4-8,3.3-9.3-3-.3-1.6-1-2.1-2.3-1.1-9.2,7-19.1,8.6-29.4,3.1-11-5.9-16.2-16.1-18.1-27.9-2.3-14.1.4-27.3,10.4-38.1,10.1-10.9,23.8-12.2,36.1-3.7.8.5,1.6,1.1,3.4,2.3ZM404.8,135c0-3.2,0-6.3,0-9.5,0-7.2-5-14.1-11.9-16.7-6.4-2.4-13.5-.4-18.5,5.2-9.6,10.8-9.7,30.7-.2,41.5,5.2,5.9,12.3,7.9,18.9,5.3,6.9-2.7,11.8-9.6,11.8-16.8,0-3,0-6,0-9Z"/>
      <path class="cls-2" d="M294.1,142.7c0,9.6-.2,17.6,0,25.6.1,3.7-1,5.3-4.8,4.8-1.5-.2-3-.1-4.5,0-2.5.2-4.3-.3-4.1-3.4.1-2.5-1.1-2.8-3.1-1.6-4,2.4-8.2,4.4-12.8,5.5-11.1,2.7-21.8-2.1-25.9-11.7-4-9.1-.3-19.5,9.2-25.9,8.3-5.6,17.9-7.1,27.6-7.4,3.9-.1,5.2-1.2,5.1-5.1-.2-7.9-3.1-12.9-9.3-14.8-5.9-1.8-10.8.4-15.3,7.1-1.2,1.8-11.8,3.3-13.4,1.8-1.1-1-.3-2.2,0-3.2,3.1-12,14.2-19.9,27-19.3,11.8.6,22.1,9.8,23.8,21.8,1.3,9.1.2,18.3.5,25.8ZM280.8,146.8c-.8-2.1,1.8-6.5-2-6.5-8.9,0-18,.8-25.1,7.4-2.7,2.6-3.7,6-2,9.5,1.7,3.4,4.8,4.4,8.4,4,5.4-.5,10.1-2.9,15-5,4.4-1.8,7-4.4,5.6-9.6Z"/>
      <path class="cls-2" d="M305.5,135.1c0-10.8.1-21.6,0-32.5,0-3.5,1-4.9,4.5-4.6,2.3.2,4.7,0,7,0,1,0,2.7.2,2.8.6,1.6,6.2,4.2,1.4,6,.4,4.2-2.4,8.6-3.5,13.4-3.1,9.5.9,12.3,4.5,11,13.9-.3,2.6-.8,3.5-3.7,2.1-9.6-4.6-16.6-2.7-23.1,5.7-2,2.6-3,5.3-3,8.7.2,13.5,0,27,.1,40.5,0,3.7-.7,5.3-4.9,5.2-10.1-.2-10.1,0-10.1-10,0-9,0-18,0-27Z"/>
      <path class="cls-2" d="M114.3,134.1c0-10.3.1-20.6,0-30.9,0-3.2,1-4.3,4.3-4.3,12.1-.2,12.1-.3,12.1,11.9,0,17.6,0,35.2,0,52.9,0,3.7-1.1,4.8-4.8,4.8-11.6,0-11.6.2-11.6-11.4s0-15.3,0-22.9Z"/>
      <path class="cls-1" d="M30.4,297.8c-6.3,0-12.7-.2-19,0-4.2.2-4.6-1.8-4.5-5.1,0-3.1,0-5.4,4.3-5.2,9.1.3,18.3-.1,27.5.2,4.6.1,5.3-1.8,4.7-5.7-1.6-10.2-8.6-17.2-20.5-19.8-2.8-.6-4.3-1.3-4.4-4.6,0-3.9,1.2-5.1,5.1-5.1,17.6,0,27.3,8.1,30.4,25.9.9,5.1.5,10.3.5,15.4,0,3-1.1,4.1-4.1,4-6.7-.2-13.3,0-20,0Z"/>
      <path class="cls-1" d="M90.4,274.7c0,6.8.2,13.7,0,20.5-.4,13.6-10.8,24.4-24.2,25.3-1.8.1-4.3.6-3.9-2.2.3-2.5-2.3-6.1,2.5-7.4,10.7-3.1,12.8-6,12.8-17,0-12.8,0-25.7,0-38.5q0-6.4,6.6-6.4c.8,0,1.7,0,2.5,0,2.9-.3,3.8,1,3.7,3.8-.1,7.3,0,14.7,0,22,0,0,0,0,.1,0Z"/>
      <path class="cls-2" d="M111.4,78.5c0-5.9,4.6-10.4,10.5-10.4,5.8,0,10.5,4.7,10.5,10.5,0,6-4.8,10.7-10.9,10.6-5.9-.1-10.3-4.7-10.2-10.7Z"/>
      <path class="cls-1" d="M381.1,317.2c.9,3.6-1.3,5.5-4.7,7-6.1,2.7-12,5.8-17.9,8.8-2.8,1.5-3.6.8-3.8-2.3-.4-4.9.7-8.1,5.8-9.9,5.3-1.9,10.2-4.9,15.3-7.4q5.5-2.7,5.4,3.8Z"/>
      <path class="cls-1" d="M289.8,327.8c-4.1,0-7.6-3.4-7.6-7.6,0-4,3.1-7.3,7.1-7.4,4.2-.2,7.8,3.1,7.9,7.2.1,4.1-3.3,7.7-7.4,7.8Z"/>
      <path class="cls-1" d="M268.7,327.8c-4.1,0-7.4-3.6-7.3-7.8.1-4.1,3.3-7.2,7.3-7.2,4.2,0,7.6,3.3,7.6,7.5,0,4.1-3.5,7.6-7.7,7.5Z"/>
    </g>
  </g>
</svg>