<svg width="108" height="56" viewBox="0 0 108 56" fill="none" xmlns="http://www.w3.org/2000/svg">
<g clip-path="url(#clip0_51_637)">
<path d="M3.02351 22.8475C3.02351 21.5735 2.76009 20.5752 2.23034 19.8497C1.70058 19.1271 0.957168 18.7644 0.00302124 18.7644V16.9651C0.960094 16.9651 1.70351 16.5849 2.23034 15.8217C2.76009 15.0614 3.02351 14.1299 3.02351 13.03V4.41974C3.02351 3.22121 3.32497 2.26065 3.93083 1.53515C4.53668 0.812549 5.44107 0.449799 6.64985 0.449799H11.2216V2.58567H9.89863C9.21961 2.58567 8.72205 2.75979 8.40595 3.10804C8.08985 3.45628 7.93473 4.02797 7.93473 4.82312V13.0242C7.93473 13.8455 7.80302 14.5419 7.53961 15.1107C7.27619 15.6795 6.93375 16.1467 6.52107 16.5095C6.10546 16.8693 5.65766 17.1421 5.18058 17.3308C4.70058 17.5165 4.23522 17.6355 3.78156 17.6848V17.9083C4.20888 17.9576 4.66839 18.0824 5.16009 18.2797C5.6518 18.48 6.10546 18.776 6.52107 19.1735C6.93668 19.5711 7.27619 20.0616 7.53961 20.6449C7.80302 21.2282 7.93473 21.9188 7.93473 22.714V30.915C7.93473 31.6841 8.08692 32.25 8.38839 32.6098C8.68985 32.9697 9.2079 33.1496 9.93668 33.1496H11.2216V35.2855H6.64985C5.51717 35.2855 4.62741 34.9546 3.98644 34.293C3.34546 33.6313 3.02351 32.6504 3.02351 31.3533V22.8504V22.8475Z" fill="#00979D"/>
<path d="M17.678 23.5585C17.9561 23.8342 18.3454 24.0896 18.8488 24.3275C19.3522 24.5655 20.0195 24.6845 20.8507 24.6845C22.2351 24.6845 23.3883 24.3275 24.3073 23.6165C25.2263 22.9055 25.6858 21.913 25.6858 20.6391C25.6858 19.7162 25.3902 18.9414 24.799 18.3175C24.2078 17.6935 23.4585 17.1189 22.5512 16.5937C21.6439 16.0684 20.6751 15.5518 19.6419 15.0382C18.6088 14.5274 17.64 13.9209 16.7327 13.2215C15.8254 12.5222 15.0761 11.6922 14.4849 10.7316C13.8937 9.77105 13.598 8.57833 13.598 7.15344C13.598 5.9317 13.8234 4.86957 14.2771 3.96994C14.7307 3.07032 15.3541 2.32741 16.1473 1.7412C16.9405 1.155 17.88 0.716795 18.9629 0.429497C20.0458 0.142198 21.2166 0 22.4751 0C24.0117 0 25.44 0.107374 26.7629 0.319221C28.0858 0.531067 29.2741 0.861896 30.3337 1.31171C30.3073 1.81085 30.2634 2.38545 30.2019 3.0355C30.1376 3.68555 30.0556 4.32689 29.9561 4.96533C29.8566 5.60087 29.7483 6.20159 29.6341 6.76458C29.52 7.32756 29.4146 7.79479 29.3122 8.16915H27.7639L26.0195 3.0384C25.7151 2.8875 25.2673 2.7511 24.6732 2.62632C24.079 2.50153 23.4644 2.43768 22.8322 2.43768C21.7698 2.43768 20.8712 2.71338 20.1395 3.26185C19.4049 3.81033 19.039 4.61129 19.039 5.65891C19.039 6.60787 19.3434 7.41462 19.9493 8.07628C20.5551 8.73794 21.3132 9.34446 22.2234 9.89294C23.1337 10.4414 24.1258 10.987 25.1971 11.521C26.2712 12.0578 27.2605 12.676 28.1707 13.3753C29.081 14.0747 29.839 14.8931 30.4449 15.8275C31.0507 16.7649 31.3551 17.9199 31.3551 19.2925C31.3551 21.7883 30.5063 23.7181 28.8058 25.0791C27.1054 26.4402 24.6058 27.1192 21.3073 27.1192C20.5024 27.1192 19.6888 27.0699 18.8722 26.9683C18.0527 26.8697 17.28 26.7304 16.5483 26.5563C15.8166 26.3821 15.1698 26.1935 14.6019 25.9933C14.0341 25.793 13.6127 25.5812 13.3376 25.3577C13.361 24.7831 13.4254 24.165 13.5278 23.5033C13.6273 22.8417 13.7356 22.18 13.8498 21.5184C13.9639 20.8567 14.0839 20.227 14.2097 19.6263C14.3356 19.0255 14.4615 18.5032 14.5873 18.0534H16.1356L17.6839 23.5585H17.678Z" fill="#FDC031"/>
<path d="M53.2244 18.8021H54.7727C54.8722 19.2026 54.9688 19.6814 55.0566 20.2444C55.1444 20.8074 55.2205 21.4052 55.2819 22.0436C55.3434 22.6792 55.3902 23.3118 55.4136 23.9357C55.4371 24.5597 55.4517 25.1227 55.4517 25.6218C54.5707 26.1703 53.4673 26.5592 52.1473 26.7826C50.8244 27.0061 49.4722 27.1192 48.0878 27.1192C45.998 27.1192 44.1015 26.8639 42.4039 26.3502C40.7034 25.8395 39.2546 25.0269 38.0605 23.9154C36.8634 22.804 35.9385 21.3936 35.2829 19.6843C34.6273 17.975 34.2995 15.9204 34.2995 13.5233C34.2995 11.1263 34.6595 9.1094 35.3766 7.40011C36.0936 5.69083 37.0566 4.28626 38.2654 3.1864C39.4741 2.08654 40.879 1.28269 42.4771 0.769032C44.0751 0.258279 45.758 0 47.52 0C49.1824 0 50.6868 0.118982 52.0332 0.356947C53.3795 0.594911 54.4829 0.914132 55.3376 1.31171C55.3376 1.71218 55.32 2.22294 55.2819 2.84687C55.2439 3.4708 55.1824 4.12665 55.0917 4.81443C55.0039 5.5022 54.9015 6.17547 54.7902 6.83713C54.6761 7.49878 54.5707 8.05307 54.4683 8.50288H52.8819L50.8039 2.84687C50.5785 2.72208 50.2127 2.62341 49.7093 2.54796C49.2058 2.47251 48.6907 2.43478 48.161 2.43478C47.1278 2.43478 46.159 2.64083 45.2517 3.05291C44.3444 3.46499 43.5395 4.12085 42.8341 5.02047C42.1288 5.92009 41.5756 7.07509 41.1717 8.48546C40.7678 9.89584 40.5658 11.5877 40.5658 13.5611C40.5658 17.1334 41.2829 19.8787 42.72 21.8028C44.1541 23.7268 46.1063 24.6874 48.5736 24.6874C49.279 24.6874 49.8761 24.6322 50.3678 24.519C50.8595 24.4059 51.1932 24.2521 51.3688 24.0518L53.2185 18.8079L53.2244 18.8021Z" fill="#FDC031"/>
<path d="M76.5336 26.6694H63.5385V25.2474C64.0419 25.0472 64.6156 24.8412 65.2566 24.6293C65.8976 24.4175 66.5473 24.2607 67.2029 24.1621V2.88458H62.8215L60.4039 9.2893H58.8556C58.7561 8.79016 58.6537 8.15462 58.5541 7.37978C58.4546 6.60495 58.3639 5.8069 58.2907 4.98273C58.2176 4.15856 58.1532 3.34019 58.1005 2.53053C58.0507 1.71797 58.0244 1.02729 58.0244 0.452698H82.0507C82.0507 1.05341 82.0244 1.74989 81.9746 2.55085C81.9249 3.3489 81.8605 4.16146 81.7844 4.98563C81.7083 5.8098 81.6205 6.60205 81.521 7.36527C81.4215 8.1285 81.319 8.76985 81.2195 9.29511H79.6712L77.2537 2.89038H72.8722V24.1592C73.5278 24.284 74.1746 24.4349 74.8185 24.609C75.4595 24.7831 76.0332 24.995 76.5366 25.2445V26.6665L76.5336 26.6694Z" fill="#FDC031"/>
<path d="M86.4673 31.5738C86.9707 31.4229 87.4244 31.1995 87.8283 30.9005C88.2322 30.6016 88.5775 30.265 88.8673 29.8906C89.157 29.5163 89.3766 29.1158 89.5288 28.6921C89.6809 28.2684 89.7424 27.8563 89.719 27.4559C89.3649 27.0061 88.9434 26.6433 88.4546 26.3705C87.9629 26.0948 87.4419 25.8714 86.8858 25.6972C86.76 25.172 86.7395 24.6496 86.8302 24.1244C86.918 23.5991 87.0878 23.1145 87.3395 22.6647C87.5912 22.2148 87.8868 21.8347 88.2263 21.5213C88.5658 21.2107 88.9258 21.0163 89.3034 20.9409C89.8331 20.967 90.3483 21.086 90.8517 21.2978C91.3551 21.5097 91.8087 21.8086 92.2127 22.1974C92.6166 22.5834 92.9356 23.0767 93.1756 23.6775C93.4156 24.2782 93.5356 24.9776 93.5356 25.7756C93.5356 26.5737 93.3775 27.3369 93.0644 28.1349C92.7483 28.933 92.3209 29.6759 91.7795 30.3637C91.238 31.0514 90.5883 31.6493 89.8331 32.1629C89.078 32.6737 88.2468 33.0306 87.3395 33.2309L86.4702 31.5825L86.4673 31.5738ZM86.8448 10.5981C86.8448 9.69849 87.1346 8.97589 87.7141 8.42451C88.2936 7.87603 89.0605 7.60034 90.0175 7.60034C90.9746 7.60034 91.7561 7.87603 92.359 8.42451C92.9648 8.97299 93.2663 9.69849 93.2663 10.5981C93.2663 11.4977 92.9648 12.2145 92.359 12.7514C91.7531 13.2883 90.9746 13.5553 90.0175 13.5553C89.0605 13.5553 88.2936 13.2883 87.7141 12.7514C87.1346 12.2145 86.8448 11.4977 86.8448 10.5981Z" fill="#00979D"/>
<path d="M104.98 12.8472C104.98 14.1211 105.243 15.1194 105.773 15.8449C106.302 16.5704 107.043 16.9303 108 16.9303V18.7295C107.043 18.7295 106.3 19.1097 105.773 19.8729C105.243 20.6362 104.98 21.5648 104.98 22.6617V31.3126C104.98 32.5112 104.678 33.4717 104.072 34.1972C103.466 34.9198 102.562 35.2826 101.353 35.2826H96.7815V33.1467H98.1044C98.7834 33.1467 99.281 32.9726 99.5971 32.6243C99.9102 32.2761 100.068 31.7044 100.068 30.9092V22.6705C100.068 21.8521 100.182 21.1556 100.408 20.5839C100.633 20.0122 100.932 19.5479 101.295 19.1851C101.66 18.8253 102.061 18.5525 102.503 18.3639C102.942 18.1782 103.39 18.0592 103.844 18.0098V17.7864C103.417 17.737 102.975 17.6123 102.521 17.4149C102.067 17.2176 101.658 16.9187 101.295 16.5211C100.929 16.1235 100.633 15.6331 100.408 15.0498C100.182 14.4665 100.068 13.7758 100.068 12.9807V4.82022C100.068 4.05119 99.9161 3.4853 99.6146 3.12545C99.3132 2.7656 98.7951 2.58567 98.0663 2.58567H96.7815V0.449799H101.391C102.524 0.449799 103.405 0.780627 104.034 1.44228C104.663 2.10394 104.98 3.08482 104.98 4.38202V12.8472Z" fill="#00979D"/>
<path d="M5.60488 54.5025C5.72195 54.6186 5.88585 54.726 6.09659 54.8247C6.31024 54.9233 6.59122 54.9756 6.93951 54.9756C7.52195 54.9756 8.0078 54.8247 8.39415 54.5258C8.78049 54.2269 8.97366 53.809 8.97366 53.2721C8.97366 52.8832 8.8478 52.5582 8.59902 52.2941C8.35024 52.0329 8.03415 51.7892 7.65366 51.5686C7.27317 51.3481 6.86341 51.1304 6.43024 50.9157C5.99707 50.7009 5.58732 50.4455 5.20683 50.1524C4.82634 49.8593 4.51024 49.5082 4.26146 49.1048C4.01268 48.7014 3.88683 48.1994 3.88683 47.5987C3.88683 47.085 3.98341 46.6381 4.17366 46.2579C4.3639 45.8807 4.62732 45.5673 4.96098 45.3206C5.29463 45.0739 5.68976 44.8882 6.14634 44.7692C6.6 44.6502 7.09463 44.5893 7.62439 44.5893C8.27122 44.5893 8.87122 44.6328 9.42732 44.7228C9.98341 44.8128 10.4839 44.952 10.9288 45.1407C10.9171 45.3496 10.8995 45.5905 10.8732 45.8662C10.8468 46.139 10.8117 46.4089 10.7707 46.6787C10.7298 46.9486 10.6829 47.1982 10.6361 47.4362C10.5893 47.6712 10.5424 47.8686 10.5015 48.0282H9.84878L9.11415 45.8691C8.98537 45.8052 8.79805 45.7472 8.54634 45.695C8.29463 45.6427 8.03707 45.6166 7.77366 45.6166C7.32585 45.6166 6.94829 45.7327 6.64098 45.9648C6.33073 46.197 6.17854 46.5336 6.17854 46.9747C6.17854 47.3752 6.30439 47.7119 6.56195 47.9904C6.81659 48.269 7.13561 48.5244 7.51902 48.7537C7.90244 48.9858 8.31805 49.2151 8.77171 49.4385C9.22244 49.6649 9.64098 49.9261 10.0244 50.2192C10.4078 50.5123 10.7268 50.8576 10.9815 51.2523C11.2361 51.647 11.3649 52.1316 11.3649 52.7091C11.3649 53.7596 11.0078 54.5722 10.2907 55.1439C9.57659 55.7156 8.52293 56.0029 7.13561 56.0029C6.7961 56.0029 6.45366 55.9826 6.11122 55.939C5.76585 55.8984 5.44098 55.8404 5.13366 55.7649C4.82634 55.6924 4.55415 55.614 4.31415 55.5299C4.07707 55.4457 3.89854 55.3557 3.78146 55.2629C3.79317 55.022 3.81951 54.7608 3.86049 54.4822C3.90146 54.2036 3.94829 53.925 3.99512 53.6465C4.04195 53.3679 4.09463 53.1038 4.14732 52.8513C4.2 52.5988 4.25268 52.3783 4.30537 52.1896H4.95805L5.61073 54.5055L5.60488 54.5025Z" fill="#1C2B33"/>
<path d="M21.9629 55.8085H17.7512V55.2106C17.8771 55.1381 18.0117 55.0684 18.1493 55.0046C18.2868 54.9408 18.4449 54.8827 18.6263 54.8305V51.6383C18.6263 50.7328 18.5385 50.0654 18.3629 49.6388C18.1873 49.2122 17.8478 48.9974 17.3385 48.9974C16.9141 48.9974 16.5541 49.1425 16.2585 49.4327C15.9629 49.7229 15.7493 50.0567 15.6234 50.4368V54.8305C15.7932 54.8711 15.9424 54.9204 16.0771 54.9727C16.2088 55.0249 16.3493 55.1033 16.4985 55.2106V55.8085H12.2868V55.2106C12.6146 55.0423 12.9659 54.9146 13.3346 54.8305V45.251L12.1259 45.1233V44.5255C12.2839 44.4616 12.4888 44.4007 12.7376 44.3368C12.9863 44.273 13.2498 44.2178 13.5249 44.1714C13.8 44.125 14.0751 44.0814 14.3532 44.0466C14.6283 44.0089 14.8712 43.9799 15.0849 43.9596H15.6263V49.5227H15.641C15.7463 49.2818 15.8898 49.0526 16.0712 48.8378C16.2498 48.6231 16.4546 48.4345 16.6829 48.269C16.9112 48.1065 17.1571 47.9788 17.4234 47.8831C17.6868 47.7873 17.9678 47.7409 18.2663 47.7409C18.6907 47.7409 19.0683 47.7902 19.402 47.8918C19.7356 47.9934 20.0137 48.1675 20.2361 48.4199C20.4585 48.6724 20.6283 49.012 20.7454 49.4386C20.8624 49.8651 20.921 50.4049 20.921 51.0579V54.8334C21.0995 54.874 21.281 54.9233 21.4624 54.9756C21.641 55.0278 21.8107 55.1091 21.9717 55.2135V55.8114L21.9629 55.8085Z" fill="#1C2B33"/>
<path d="M29.88 54.4851C29.7951 54.6622 29.6605 54.845 29.4732 55.0278C29.2858 55.2106 29.0605 55.3732 28.7883 55.5154C28.519 55.6575 28.2058 55.7736 27.8517 55.8636C27.4976 55.9536 27.1141 55.9971 26.6985 55.9971C26.0429 55.9971 25.4576 55.8984 24.9512 55.7069C24.4419 55.5125 24.0176 55.2339 23.681 54.8711C23.3415 54.5084 23.0839 54.076 22.9112 53.571C22.7356 53.0661 22.6478 52.5002 22.6478 51.8675C22.6478 50.5239 23.0019 49.4966 23.7132 48.7943C24.4244 48.0891 25.4078 47.738 26.6693 47.738C27.2107 47.738 27.7171 47.8105 28.1883 47.9585C28.6595 48.1065 29.0517 48.3474 29.3649 48.684C29.678 49.0207 29.8946 49.4618 30.0176 50.0073C30.1405 50.5529 30.1317 51.2204 29.9941 52.0097H25.1151C25.1268 52.8397 25.3405 53.5014 25.759 53.9947C26.1776 54.488 26.7951 54.7347 27.6117 54.7347C27.9629 54.7347 28.3229 54.6825 28.7005 54.578C29.078 54.4735 29.3707 54.3371 29.5844 54.1688L29.8858 54.4851H29.88ZM26.5961 48.6376C26.3854 48.6376 26.198 48.6753 26.0341 48.7479C25.8702 48.8233 25.7297 48.9568 25.6068 49.1513C25.4868 49.3457 25.3873 49.6069 25.3141 49.9377C25.241 50.2685 25.1883 50.6864 25.1561 51.1914H27.6995C27.7727 50.373 27.7258 49.7404 27.559 49.2993C27.3922 48.8582 27.0702 48.6376 26.5961 48.6376Z" fill="#1C2B33"/>
<path d="M39.2722 52.5002H39.9249C39.9659 52.6685 40.0068 52.8716 40.0449 53.1067C40.0829 53.3417 40.1122 53.5971 40.1415 53.8641C40.1678 54.1311 40.1854 54.3981 40.1971 54.6593C40.2088 54.9233 40.2117 55.1584 40.2117 55.3673C39.84 55.5995 39.3776 55.762 38.8215 55.8578C38.2654 55.9535 37.6946 56 37.1122 56C36.2341 56 35.4351 55.8926 34.721 55.6779C34.0068 55.4631 33.3951 55.1207 32.8917 54.6534C32.3883 54.1862 31.999 53.5913 31.7239 52.8716C31.4488 52.1519 31.3112 51.2871 31.3112 50.2801C31.3112 49.2731 31.4634 48.4228 31.7649 47.7031C32.0663 46.9834 32.4732 46.3914 32.9795 45.93C33.4859 45.4686 34.08 45.1291 34.7532 44.9143C35.4263 44.6996 36.1346 44.5922 36.8751 44.5922C37.5746 44.5922 38.2068 44.6415 38.7746 44.7431C39.3424 44.8418 39.8049 44.9782 40.1649 45.1465C40.1649 45.3148 40.1561 45.5295 40.1415 45.7936C40.1239 46.0577 40.1005 46.3334 40.0624 46.6207C40.0244 46.908 39.9834 47.1924 39.9366 47.471C39.8898 47.7496 39.8429 47.9846 39.802 48.1733H39.1346L38.2595 45.7936C38.1629 45.7414 38.0107 45.6979 37.8 45.6688C37.5863 45.6369 37.3698 45.6224 37.1473 45.6224C36.7112 45.6224 36.3044 45.7095 35.9239 45.8836C35.5434 46.0577 35.2039 46.3334 34.9054 46.7107C34.6098 47.0879 34.3756 47.5755 34.2059 48.1675C34.0361 48.7595 33.9512 49.4734 33.9512 50.3033C33.9512 51.8066 34.2527 52.9616 34.8585 53.7712C35.4615 54.5809 36.2839 54.9843 37.3229 54.9843C37.6185 54.9843 37.8702 54.9611 38.078 54.9146C38.2859 54.8682 38.4263 54.8014 38.4995 54.7173L39.278 52.5118L39.2722 52.5002Z" fill="#1C2B33"/>
<path d="M41.5464 51.8704C41.5464 51.2291 41.6459 50.6545 41.842 50.1437C42.0381 49.633 42.319 49.2006 42.6849 48.8436C43.0507 48.4867 43.4927 48.2139 44.0107 48.0224C44.5288 47.8337 45.1171 47.738 45.7756 47.738C46.5161 47.738 47.1571 47.8395 47.6898 48.0456C48.2254 48.2516 48.6644 48.5331 49.0098 48.8959C49.3551 49.2586 49.6068 49.6939 49.7649 50.2047C49.9229 50.7154 50.002 51.2697 50.002 51.8675C50.002 52.5089 49.9054 53.0835 49.7151 53.5942C49.5249 54.105 49.2468 54.5374 48.881 54.8943C48.5151 55.2513 48.0703 55.5241 47.5464 55.7156C47.0224 55.9042 46.4312 56 45.7727 56C45.0527 56 44.4264 55.8984 43.8966 55.6924C43.3668 55.4863 42.9278 55.2048 42.5766 54.8421C42.2254 54.4793 41.9678 54.044 41.7981 53.5333C41.6283 53.0225 41.5434 52.4682 41.5434 51.8704H41.5464ZM44.0107 51.8704C44.0107 52.3435 44.04 52.7759 44.0985 53.1705C44.1571 53.5652 44.2595 53.8989 44.4088 54.1717C44.5581 54.4445 44.76 54.6593 45.0117 54.8102C45.2664 54.964 45.5942 55.0394 45.9981 55.0394C46.2322 55.0394 46.4429 54.9843 46.6332 54.874C46.8234 54.7637 46.9873 54.5838 47.1278 54.3371C47.2654 54.0905 47.3678 53.7654 47.4381 53.3592C47.5054 52.9558 47.5405 52.4566 47.5405 51.8704C47.5405 51.3858 47.5112 50.9505 47.4527 50.5616C47.3942 50.1728 47.2946 49.8419 47.1512 49.5691C47.0078 49.2964 46.8146 49.0816 46.5717 48.9307C46.3288 48.7769 46.0215 48.7014 45.6498 48.7014C45.3746 48.7014 45.1346 48.7566 44.9356 48.8669C44.7337 48.9771 44.5639 49.1571 44.4264 49.4037C44.2888 49.6504 44.1864 49.9754 44.1161 50.3817C44.0459 50.7851 44.0137 51.2842 44.0137 51.8704H44.0107Z" fill="#1C2B33"/>
<path d="M56.4058 54.2501C56.3532 54.4822 56.2566 54.7028 56.119 54.9117C55.9815 55.1236 55.8175 55.3093 55.6273 55.4718C55.4371 55.6343 55.2175 55.762 54.9746 55.8578C54.7317 55.9535 54.4712 56 54.1961 56C53.1483 56 52.3493 55.6721 51.8049 55.0162C51.2575 54.3603 50.9854 53.3533 50.9854 51.9981C50.9854 51.3045 51.0819 50.698 51.2722 50.1786C51.4624 49.6591 51.7288 49.2209 52.0741 48.8639C52.4166 48.507 52.8351 48.24 53.321 48.0601C53.8097 47.8831 54.3483 47.7931 54.9424 47.7931C55.1327 47.7931 55.2936 47.7989 55.4283 47.8105C55.5629 47.8221 55.6829 47.8337 55.7941 47.8511C55.9054 47.8686 56.0107 47.8918 56.1132 47.9295C56.2127 47.9672 56.3268 48.005 56.4556 48.0485V45.2597L55.2468 45.132V44.5342C55.3961 44.4703 55.598 44.4123 55.8585 44.36C56.119 44.3078 56.3912 44.2585 56.678 44.2091C56.9649 44.1627 57.2458 44.1163 57.521 44.0756C57.7961 44.035 58.0244 43.9973 58.2058 43.9654H58.7473V54.6999L59.7951 54.8247V55.376C59.6458 55.4486 59.4556 55.5182 59.2214 55.5821C58.9873 55.6459 58.7444 55.704 58.4897 55.7562C58.2351 55.8084 57.9893 55.8549 57.7493 55.8897C57.5122 55.9274 57.3132 55.9564 57.1522 55.9768H56.6107L56.4673 54.2588H56.4029L56.4058 54.2501ZM54.96 54.7376C55.3317 54.7376 55.6449 54.6215 55.8995 54.3894C56.1541 54.1572 56.3385 53.7654 56.4556 53.2083V48.9684C56.318 48.8843 56.1454 48.8146 55.9405 48.7624C55.7356 48.7101 55.478 48.684 55.1707 48.684C54.5561 48.684 54.1171 48.9597 53.8507 49.5111C53.5873 50.0625 53.4527 50.8634 53.4527 51.914C53.4527 52.7642 53.5697 53.4491 53.8039 53.9628C54.038 54.4764 54.4244 54.7347 54.9629 54.7347L54.96 54.7376Z" fill="#1C2B33"/>
<path d="M67.7415 54.4851C67.6566 54.6622 67.522 54.845 67.3346 55.0278C67.1473 55.2106 66.922 55.3732 66.6498 55.5154C66.3776 55.6575 66.0673 55.7736 65.7132 55.8636C65.359 55.9536 64.9756 55.9971 64.56 55.9971C63.9044 55.9971 63.319 55.8984 62.8127 55.7069C62.3034 55.5125 61.879 55.2339 61.5424 54.8711C61.2029 54.5084 60.9454 54.076 60.7727 53.571C60.5971 53.0661 60.5093 52.5002 60.5093 51.8675C60.5093 50.5239 60.8634 49.4966 61.5746 48.7943C62.2859 48.0891 63.2693 47.738 64.5307 47.738C65.0722 47.738 65.5785 47.8105 66.0498 47.9585C66.521 48.1065 66.9132 48.3474 67.2263 48.684C67.5395 49.0207 67.7561 49.4618 67.879 50.0073C68.002 50.5529 67.9932 51.2204 67.8556 52.0097H62.9766C62.9883 52.8397 63.202 53.5014 63.6205 53.9947C64.039 54.488 64.6566 54.7347 65.4732 54.7347C65.8244 54.7347 66.1844 54.6825 66.562 54.578C66.9395 54.4735 67.2322 54.3371 67.4459 54.1688L67.7473 54.4851H67.7415ZM64.4576 48.6376C64.2468 48.6376 64.0595 48.6753 63.8956 48.7479C63.7317 48.8233 63.5912 48.9568 63.4683 49.1513C63.3483 49.3457 63.2488 49.6069 63.1756 49.9377C63.1024 50.2685 63.0498 50.6864 63.0176 51.1914H65.561C65.6342 50.373 65.5873 49.7404 65.4205 49.2993C65.2537 48.8582 64.9317 48.6376 64.4576 48.6376Z" fill="#1C2B33"/>
<path d="M73.1298 54.0905C73.1298 53.8177 73.0303 53.5797 72.8342 53.3824C72.6381 53.185 72.3951 52.9993 72.1025 52.831C71.8098 52.6627 71.4937 52.4944 71.1483 52.326C70.8029 52.1577 70.4868 51.9604 70.1942 51.7369C69.9015 51.5106 69.6586 51.2465 69.4625 50.9418C69.2664 50.6371 69.1698 50.2627 69.1698 49.8216C69.1698 49.5082 69.2429 49.2209 69.3922 48.9626C69.5415 48.7043 69.7434 48.4867 69.9951 48.3097C70.2498 48.1297 70.5542 47.9934 70.9083 47.8918C71.2625 47.7902 71.6488 47.7409 72.0615 47.7409C72.6351 47.7409 73.1649 47.7844 73.6595 47.8744C74.1512 47.9643 74.5844 48.0862 74.9561 48.2458C74.9151 48.5825 74.8303 48.9423 74.7015 49.3254C74.5756 49.7084 74.4527 50.0567 74.3356 50.373H73.7942L73.1268 48.7653C73.001 48.713 72.8664 48.6782 72.7288 48.6637C72.5912 48.6463 72.4361 48.6405 72.2693 48.6405C71.9503 48.6405 71.7103 48.7334 71.5464 48.9162C71.3825 49.099 71.3005 49.308 71.3005 49.5401C71.3005 49.8013 71.4 50.0306 71.5961 50.225C71.7922 50.4194 72.0351 50.5994 72.3278 50.7677C72.6205 50.936 72.9366 51.1043 73.282 51.2726C73.6273 51.4409 73.9434 51.6325 74.2361 51.8472C74.5288 52.062 74.7717 52.3173 74.9678 52.6104C75.1639 52.9035 75.2634 53.2576 75.2634 53.6668C75.2634 54.3923 74.9678 54.9611 74.3737 55.3761C73.7795 55.791 72.9864 56 71.9883 56C71.479 56 70.9551 55.9477 70.4137 55.8433C69.8722 55.7388 69.4068 55.5908 69.0146 55.4022C69.0351 55.0249 69.1259 54.6418 69.2839 54.253C69.442 53.8641 69.6117 53.5188 69.7932 53.2141H70.3346L71.1132 54.932C71.2303 55.0162 71.359 55.0655 71.5025 55.0829C71.6459 55.1004 71.7805 55.1062 71.9064 55.1062C72.2137 55.1062 72.4946 55.0162 72.7493 54.8392C73.0039 54.6622 73.1298 54.4126 73.1298 54.0992V54.0905Z" fill="#1C2B33"/>
<path d="M83.7629 55.8085H78.2956V55.2106C78.5063 55.1265 78.7493 55.0394 79.0185 54.9495C79.2878 54.8595 79.5629 54.7957 79.838 54.7521V45.7994H77.9942L76.9756 48.4954H76.3229C76.279 48.2865 76.238 48.0166 76.1941 47.6915C76.1532 47.3665 76.1151 47.0299 76.0829 46.6816C76.0507 46.3363 76.0244 45.991 76.0039 45.6485C75.9834 45.3061 75.9717 45.0159 75.9717 44.7721H86.081C86.081 45.0246 86.0693 45.3177 86.0488 45.6543C86.0283 45.991 86.002 46.3334 85.9698 46.6787C85.9376 47.027 85.8995 47.3607 85.8585 47.6799C85.8176 47.9992 85.7737 48.2719 85.7327 48.4925H85.08L84.0644 45.7965H82.2205V54.7492C82.4956 54.8015 82.7707 54.8653 83.04 54.9378C83.3093 55.0104 83.5522 55.1004 83.7629 55.2048V55.8026V55.8085Z" fill="#1C2B33"/>
<path d="M85.9405 51.8704C85.9405 51.2291 86.04 50.6545 86.2361 50.1437C86.4322 49.633 86.7132 49.2006 87.079 48.8436C87.4449 48.4867 87.8868 48.2139 88.4049 48.0224C88.9229 47.8337 89.5112 47.738 90.1698 47.738C90.9102 47.738 91.5512 47.8395 92.0839 48.0456C92.6195 48.2516 93.0585 48.5331 93.4039 48.8959C93.7493 49.2586 94.001 49.6939 94.159 50.2047C94.3171 50.7154 94.3961 51.2697 94.3961 51.8675C94.3961 52.5089 94.2995 53.0835 94.1093 53.5942C93.919 54.105 93.641 54.5374 93.2751 54.8943C92.9093 55.2513 92.4644 55.5241 91.9405 55.7156C91.4166 55.9042 90.8254 56 90.1668 56C89.4468 56 88.8205 55.8984 88.2907 55.6924C87.761 55.4863 87.322 55.2048 86.9707 54.8421C86.6195 54.4793 86.3619 54.044 86.1922 53.5333C86.0224 53.0225 85.9376 52.4682 85.9376 51.8704H85.9405ZM88.4049 51.8704C88.4049 52.3435 88.4341 52.7759 88.4927 53.1705C88.5512 53.5652 88.6537 53.8989 88.8029 54.1717C88.9522 54.4445 89.1541 54.6593 89.4059 54.8102C89.6605 54.964 89.9883 55.0394 90.3922 55.0394C90.6263 55.0394 90.8371 54.9843 91.0273 54.874C91.2176 54.7637 91.3815 54.5838 91.522 54.3371C91.6595 54.0905 91.762 53.7654 91.8322 53.3592C91.8995 52.9558 91.9346 52.4566 91.9346 51.8704C91.9346 51.3858 91.9054 50.9505 91.8468 50.5616C91.7883 50.1728 91.6888 49.8419 91.5454 49.5691C91.402 49.2964 91.2088 49.0816 90.9659 48.9307C90.7229 48.7769 90.4156 48.7014 90.0439 48.7014C89.7688 48.7014 89.5288 48.7566 89.3298 48.8669C89.1278 48.9771 88.9581 49.1571 88.8205 49.4037C88.6829 49.6504 88.5805 49.9754 88.5102 50.3817C88.44 50.7851 88.4078 51.2842 88.4078 51.8704H88.4049Z" fill="#1C2B33"/>
<path d="M95.3824 51.8704C95.3824 51.2291 95.482 50.6545 95.678 50.1437C95.8741 49.633 96.1551 49.2006 96.521 48.8436C96.8868 48.4867 97.3288 48.2139 97.8468 48.0224C98.3649 47.8337 98.9532 47.738 99.6117 47.738C100.352 47.738 100.993 47.8395 101.526 48.0456C102.061 48.2516 102.5 48.5331 102.846 48.8959C103.191 49.2586 103.443 49.6939 103.601 50.2047C103.759 50.7154 103.838 51.2697 103.838 51.8675C103.838 52.5089 103.741 53.0835 103.551 53.5942C103.361 54.105 103.083 54.5374 102.717 54.8943C102.351 55.2513 101.906 55.5241 101.382 55.7156C100.859 55.9042 100.267 56 99.6088 56C98.8888 56 98.2624 55.8984 97.7327 55.6924C97.2029 55.4863 96.7639 55.2048 96.4127 54.8421C96.0615 54.4793 95.8039 54.044 95.6341 53.5333C95.4644 53.0225 95.3795 52.4682 95.3795 51.8704H95.3824ZM97.8468 51.8704C97.8468 52.3435 97.8761 52.7759 97.9346 53.1705C97.9932 53.5652 98.0956 53.8989 98.2449 54.1717C98.3942 54.4445 98.5961 54.6593 98.8478 54.8102C99.1024 54.964 99.4302 55.0394 99.8342 55.0394C100.068 55.0394 100.279 54.9843 100.469 54.874C100.66 54.7637 100.823 54.5838 100.964 54.3371C101.101 54.0905 101.204 53.7654 101.274 53.3592C101.341 52.9558 101.377 52.4566 101.377 51.8704C101.377 51.3858 101.347 50.9505 101.289 50.5616C101.23 50.1728 101.131 49.8419 100.987 49.5691C100.844 49.2964 100.651 49.0816 100.408 48.9307C100.165 48.7769 99.8576 48.7014 99.4859 48.7014C99.2107 48.7014 98.9707 48.7566 98.7717 48.8669C98.5698 48.9771 98.4 49.1571 98.2624 49.4037C98.1249 49.6504 98.0224 49.9754 97.9522 50.3817C97.882 50.7851 97.8498 51.2842 97.8498 51.8704H97.8468Z" fill="#1C2B33"/>
</g>
<defs>
<clipPath id="clip0_51_637">
<rect width="108" height="56" fill="white"/>
</clipPath>
</defs>
</svg>
