<svg width="32" height="32" viewBox="0 0 32 32" fill="none" xmlns="http://www.w3.org/2000/svg">
<path d="M29.6034 5.51721H2.39656C1.07294 5.51721 0 6.59015 0 7.91377V24.0862C0 25.4098 1.07294 26.4828 2.39656 26.4828H29.6034C30.927 26.4828 32 25.4098 32 24.0862V7.91377C32 6.59015 30.9271 5.51721 29.6034 5.51721Z" fill="#41479B"/>
<path d="M31.9668 7.51765C31.7779 6.38271 30.792 5.51721 29.6034 5.51721H28.9799L18.7586 12.2139V5.51727H13.2414V12.214L3.02012 5.51727H2.39656C1.208 5.51727 0.222062 6.38271 0.0331875 7.51771L8.76931 13.2415H0V18.7587H8.76931L0.0331875 24.4823C0.222062 25.6173 1.208 26.4828 2.39656 26.4828H3.02012L13.2414 19.7861V26.4828H18.7586V19.7861L28.9799 26.4828H29.6034C30.792 26.4828 31.7779 25.6173 31.9668 24.4823L23.2307 18.7586H32V13.2413H23.2307L31.9668 7.51765Z" fill="#F5F5F5"/>
<path d="M17.6552 5.51721H14.3448V14.3448H0V17.6551H14.3448V26.4827H17.6552V17.6551H32V14.3448H17.6552V5.51721Z" fill="#FF4B55"/>
<path d="M1.55041 26.3282L13.2118 18.7586H11.1851L0.577344 25.6444C0.83917 25.9504 1.1738 26.1856 1.55041 26.3282ZM21.6501 18.7586H19.6233L30.9181 26.0902C31.2348 25.882 31.498 25.6021 31.686 25.273L21.6501 18.7586ZM0.253906 6.84218L10.112 13.2414H12.1388L0.968031 5.99012C0.66674 6.2145 0.42217 6.50631 0.253906 6.84218ZM20.7862 13.2414L31.4134 6.34293C31.1487 6.0377 30.8112 5.80424 30.4322 5.66418L18.7595 13.2414H20.7862Z" fill="#FF4B55"/>
</svg>
