<svg width="64" height="80" viewBox="0 0 64 80" fill="none" xmlns="http://www.w3.org/2000/svg">
<path d="M1 62.5245C16.292 54.768 36.5583 40.3651 39.1639 21.3968C39.7763 16.9384 37.0029 1.37679 30.5345 1.01597C22.3285 0.558221 17.408 10.0364 17.408 17.4304C17.408 28.0236 24.2429 41.8819 31.0207 49.5882C36.4394 55.7492 42.3897 60.1329 48.5833 65.2704C51.6492 67.8136 56.5109 69.8664 58.9751 72.959C62.1095 76.8928 57.5346 61.1482 55.6935 58.3751C55.3329 57.8321 59.7312 68.8435 62.8036 71.3114C64.3342 72.5409 56.4389 73.611 55.6935 73.7522C50.3877 74.7574 45.3119 76.8774 40.3793 79" stroke="#03979C" stroke-width="2" stroke-linecap="round"/>
</svg>
