<svg width="195" height="117" viewBox="0 0 195 117" fill="none" xmlns="http://www.w3.org/2000/svg">
<path d="M1.04727 104.388C17.2202 105.888 44.6033 107.508 53.0841 88.3132C57.2061 78.984 61.6353 72.2989 57.4727 62.191C49.009 41.6387 19.5677 62.022 26.5192 80.9413C40.4448 118.841 84.9819 126.523 110.532 97.5185C122.349 84.1032 127.06 65.3323 121.993 48.0003C119.612 39.8576 112.404 29.5629 102.393 35.4893C80.1155 48.678 91.7041 81.9946 114.635 87.4835C151.552 96.3201 176.579 54.1491 171.838 22.1907C171.81 22.003 167.32 -1.54688 164.543 1.50733C159.058 7.54096 157.431 33.2346 160.283 25.5955C163.108 18.0282 159.959 10.8052 159.833 3.53439C159.774 0.154929 188.349 5.46373 193.749 5.97432" stroke="#03979C" stroke-width="2" stroke-linecap="round"/>
</svg>
