<svg width="187" height="137" viewBox="0 0 187 137" fill="none" xmlns="http://www.w3.org/2000/svg">
<path d="M185.885 118.385C148.48 132.451 108.3 143.025 69.335 129.083C58.5341 125.219 41.6744 115.457 39.9536 102.417C38.4582 91.0834 47.1694 77.4916 54.1551 69.4724C60.9831 61.634 70.963 54.7835 81.5232 54.2756C86.3147 54.0452 91.2218 55.8446 89.2765 61.1517C84.118 75.2256 61.6249 76.0417 52.5843 65.9934C39.1191 51.0271 35.6119 27.3387 19.5253 15.0025C17.6816 13.5887 8.82023 4.69555 6.01003 8.3601C3.1107 12.1409 7.38833 19.3132 7.47307 23.4388C7.6026 29.7455 5.21843 10.9314 2.82888 5.09353C0.943761 0.488027 -0.0758219 0.782347 5.84142 2.64808C11.9109 4.56182 21.7763 6.14986 27.3396 2.38594" stroke="#03979C" stroke-width="2" stroke-linecap="round"/>
</svg>
